<?xml version="1.0" encoding="utf-8"?>
<!-- Generator: Adobe Illustrator 19.2.1, SVG Export Plug-In . SVG Version: 6.00 Build 0)  -->
<svg version="1.1" id="Layer_1" xmlns="http://www.w3.org/2000/svg" xmlns:xlink="http://www.w3.org/1999/xlink" x="0px" y="0px"
	 width="650px" height="400px" viewBox="0 0 650 400" style="enable-background:new 0 0 650 400;" xml:space="preserve">
<style type="text/css">
	.st0{fill:#FFFFFF;}
	.st1{fill:#2F4053;}
</style>
<g id="Layer_2">
	<rect y="-100" class="st0" width="650" height="600"/>
</g>
<g id="Layer_1_1_">
	<g>
		<g>
			<polygon class="st1" points="426.5,201.8 447,201.8 450.3,210 422.7,210 418.2,219.3 406,219.3 436.3,157.2 444.7,157.2 
				475,219.3 462.8,219.3 440.5,171.5 			"/>
			<polygon class="st1" points="195.5,201.8 216,201.8 219.3,210 191.7,210 187.2,219.3 175,219.3 205.3,157.2 213.7,157.2 
				244,219.3 231.8,219.3 209.5,171.5 			"/>
			<polygon class="st1" points="310.5,201.8 331,201.8 334.4,210 306.8,210 302.3,219.3 290,219.3 320.3,157.2 328.8,157.2 
				359,219.3 346.8,219.3 324.5,171.5 			"/>
			<polygon class="st1" points="232.7,157.2 262.9,219.3 263.4,219.3 270.7,219.3 271.4,219.3 301.6,157.2 289.4,157.2 267.1,206.2 
				244.9,157.2 			"/>
			<polygon class="st1" points="376,242.8 417.5,157.2 405.5,157.2 382.2,207.1 360.8,157.2 348.8,157.2 376.2,219.3 364.2,242.8 
							"/>
		</g>
	</g>
</g>
</svg>
