<?xml version="1.0" encoding="utf-8"?>
<!-- Generator: Adobe Illustrator 19.2.1, SVG Export Plug-In . SVG Version: 6.00 Build 0)  -->
<svg version="1.1" id="Lager_1" xmlns="http://www.w3.org/2000/svg" xmlns:xlink="http://www.w3.org/1999/xlink" x="0px" y="0px"
	 width="667.5px" height="106.8px" viewBox="0 0 667.5 106.8" style="enable-background:new 0 0 667.5 106.8;" xml:space="preserve"
	>
<style type="text/css">
	.st0{fill:#E38D1A;}
	.st1{fill:#68737A;}
</style>
<path class="st0" d="M23.4,53.1c0-22.8,8.1-41.9,19.2-48c-0.6,0-1.1-0.1-1.7-0.1C21.9,5.1,6.6,26.5,6.6,52.9
	c0,26.4,15.3,47.8,34.2,47.8c0.3,0,0.5,0,0.8,0C31,94,23.4,75.3,23.4,53.1z"/>
<path class="st1" d="M50.4,53.5c0-18.5,6.6-34.2,15.6-39.1c-0.5,0-0.9,0-1.4,0c-15.4,0-27.9,17.4-27.9,38.9
	c0,21.5,12.5,38.9,27.9,38.9c0.2,0,0.4,0,0.7,0C56.6,86.8,50.4,71.5,50.4,53.5z"/>
<path class="st0" d="M73.7,53.3c0-14.3,5.1-26.4,12.1-30.2c-0.4,0-0.7,0-1.1,0c-11.9,0-21.6,13.5-21.6,30.1
	c0,16.6,9.6,30.1,21.6,30.1c0.2,0,0.3,0,0.5,0C78.5,79.1,73.7,67.3,73.7,53.3z"/>
<path d="M170.8,72L134,53.1l36.9-18.9c2.4-1.2,3.4-4.2,2.1-6.6l-0.1-0.2c-1.9-3.6-6.3-5-9.9-3.1L121.1,46V28.4
	c0-2.7-2.2-4.9-4.9-4.9h-3.9c-2.7,0-4.9,2.2-4.9,4.9v49.6c0,2.7,2.2,4.9,4.9,4.9h3.9c2.7,0,4.9-2.2,4.9-4.9V60.3L162.9,82
	c3.6,1.9,8,0.5,9.9-3.1l0.1-0.2C174.2,76.2,173.3,73.2,170.8,72z"/>
<path d="M330,28.4v36.2l-43.9-38.8c-1.7-1.5-3.8-2.3-6-2.3h-5.6c-2.7,0-4.9,2.2-4.9,4.9v49.6c0,2.7,2.2,4.9,4.9,4.9h4.2
	c2.7,0,4.9-2.2,4.9-4.9V41.7l43.9,38.8c1.7,1.5,3.8,2.3,6,2.3h5.6c2.7,0,4.9-2.2,4.9-4.9V28.4c0-2.7-2.2-4.9-4.9-4.9h-4.2
	C332.2,23.5,330,25.7,330,28.4z"/>
<path d="M499.1,23.5h-57.7c-2.7,0-4.9,2.2-4.9,4.9v2.1c0,2.7,2.2,4.9,4.9,4.9h21.9v42.6c0,2.7,2.2,4.9,4.9,4.9h4.2
	c2.7,0,4.9-2.2,4.9-4.9V35.4h21.9c2.7,0,4.9-2.2,4.9-4.9v-2.1C504,25.7,501.8,23.5,499.1,23.5z"/>
<path d="M421,23.5h-37.6c-9,0-25.3,1.7-25.3,16.3v38.1c0,2.7,2.2,4.9,4.9,4.9h4.1c2.7,0,4.9-2.2,4.9-4.9V59.5h46.9
	c2.7,0,4.9-2.2,4.9-4.9v-2.1c0-2.7-2.2-4.9-4.9-4.9H372v-3.7c0-9,10.1-9.1,15.6-9.1h12l21.4,0c2.7,0,4.9-2.2,4.9-4.9v-1.5
	C425.9,25.7,423.7,23.5,421,23.5z"/>
<path d="M624,71.5c-5.6,0-15.6-0.1-15.6-9.1v-34c0-2.7-2.2-4.9-4.9-4.9h-4.1c-2.7,0-4.9,2.2-4.9,4.9v38.1
	c0,14.6,16.3,16.3,25.3,16.3h38.3c2.7,0,4.9-2.2,4.9-4.9v-1.5c0-2.7-2.2-4.9-4.9-4.9L624,71.5z"/>
<path d="M542,34.8h33.3c2.7,0,4.9-2.2,4.9-4.9v-1.5c0-2.7-2.2-4.9-4.9-4.9h-37.6c-9,0-25.3,1.7-25.3,16.3v26.7
	c0,14.6,16.3,16.3,25.3,16.3h37.6c2.7,0,4.9-2.2,4.9-4.9v-1.5c0-2.7-2.2-4.9-4.9-4.9l-33.3,0c-5.6,0-15.6-0.1-15.6-9.1v-2.9h46.9
	c2.7,0,4.9-2.2,4.9-4.9v-2.1c0-2.7-2.2-4.9-4.9-4.9h-46.9v-3.7C526.3,34.9,536.4,34.8,542,34.8z"/>
<g>
	<path d="M198.1,48.4v-4.5c0-9,10.1-9.1,15.6-9.1h13.7c5.6,0,15.6,0.1,15.6,9.1v4.5H257v-8.6c0-14.6-16.3-16.3-25.3-16.3h-22.2
		c-9,0-25.3,1.7-25.3,16.3v8.6H198.1z"/>
	<path d="M243,57.9v4.5c0,7.9-10.1,9.1-15.6,9.1h-13.7c-5.6,0-15.6-1.2-15.6-9.1v-4.5h-13.9v8.6c0,12.7,16.3,16.3,25.3,16.3h22.2
		c9,0,25.3-3.6,25.3-16.3v-8.6H243z"/>
</g>
</svg>
