<?xml version="1.0" standalone="no"?>
<!DOCTYPE svg PUBLIC "-//W3C//DTD SVG 1.1//EN" "http://www.w3.org/Graphics/SVG/1.1/DTD/svg11.dtd" >
<svg xmlns="http://www.w3.org/2000/svg">
<metadata>Generated by IcoMoon</metadata>
<defs>
<font id="icomoon" horiz-adv-x="1024">
<font-face units-per-em="1024" ascent="960" descent="-64" />
<missing-glyph horiz-adv-x="1024" />
<glyph unicode="&#x20;" horiz-adv-x="512" d="" />
<glyph unicode="&#xe900;" d="M1005.35 448c0-272.47-220.881-493.347-493.347-493.347s-493.347 220.881-493.347 493.347c0 272.47 220.881 493.347 493.347 493.347s493.347-220.881 493.347-493.347z" />
<glyph unicode="&#xe901;" d="M512-64c-282.332 0-512 229.668-512 512s229.668 512 512 512 512-229.668 512-512c0-282.332-229.668-512-512-512zM512 922.697c-261.741 0-474.697-212.956-474.697-474.697s212.956-474.697 474.697-474.697 474.697 212.956 474.697 474.697c0.036 261.741-212.919 474.697-474.697 474.697z" />
<glyph unicode="&#xe902;" d="M153.747 557.274c0 3.036 2.413 5.741 5.449 5.741h73.764c58.368 0 106.131-47.469 106.131-105.545 0-58.66-47.763-106.131-106.131-106.131h-73.764c-3.036 0-5.449 2.707-5.449 5.741v200.192zM232.668 396.105c34.157 0 56.247 26.916 56.247 61.367 0 34.157-22.089 61.075-56.247 61.075h-31.744v-122.477h31.744z" />
<glyph unicode="&#xe903;" d="M375.113 557.274c0 3.036 2.413 5.741 5.741 5.741h125.184c3.328 0 5.741-2.743 5.741-5.741v-32.951c0-3.036-2.413-5.741-5.741-5.741h-83.748v-37.485h68.937c3.036 0 5.741-2.743 5.741-5.741v-32.951c0-3.328-2.743-5.741-5.741-5.741h-68.937v-40.813h83.748c3.328 0 5.741-2.707 5.741-5.741v-32.951c0-3.036-2.413-5.741-5.741-5.741h-125.184c-3.328 0-5.741 2.707-5.741 5.741v200.119z" />
<glyph unicode="&#xe904;" glyph-name="home5" d="M1024 352l-192 192v288h-128v-160l-192 192-512-512v-32h128v-320h320v192h128v-192h320v320h128z" />
<glyph unicode="&#xe905;" glyph-name="konftel-large-meetings" d="M530.981 588.325c-34.121 0-53.102-41.728-53.102-113.774s18.981-113.774 53.102-113.774 53.102 41.728 53.102 113.774c-0.037 75.849-18.981 113.774-53.102 113.774zM512 960c-284.453 0-512-227.547-512-512s227.547-512 512-512 512 227.547 512 512-227.547 512-512 512zM348.928 360.777c3.803 0 11.374-3.803 11.374-11.374v-49.298c0-3.803-3.803-11.374-11.374-11.374h-219.977c-7.57 0-11.374 3.803-11.374 11.374v11.374c30.354 41.728 113.774 151.698 144.128 200.997 7.57 11.374 15.177 26.551 15.177 41.728 0 18.981-18.981 37.925-49.298 37.925-22.747 0-41.728-15.177-53.102-26.551-3.803-3.803-11.374-3.803-15.177 0l-30.354 34.121c-3.803 3.803-3.803 11.374 0 15.177 0 0 45.495 53.102 109.97 53.102 79.653 0 125.147-49.298 125.147-109.97 0-30.354-7.57-45.495-22.747-72.046-18.981-30.354-60.672-91.026-87.223-125.147h94.83zM530.981 284.928c-91.026 0-140.325 72.046-140.325 193.426s49.298 193.426 140.325 193.426 140.325-72.046 140.325-193.426c3.767-121.381-49.335-193.426-140.325-193.426zM932.974 451.803h-79.653v-79.653c0-3.803-3.803-11.374-11.374-11.374h-37.925c-3.803 0-11.374 3.803-11.374 11.374v79.653h-79.653c-3.803 0-11.374 3.803-11.374 11.374v37.925c0 3.803 3.803 11.374 11.374 11.374h79.653v79.653c0 3.803 3.803 11.374 11.374 11.374h37.925c3.803 0 11.374-3.803 11.374-11.374v-79.653h79.653c3.803 0 11.374-3.803 11.374-11.374v-37.925c0-7.607-7.57-11.374-11.374-11.374z" />
<glyph unicode="&#xe906;" d="M643.657 566.016c30.244 0 52.627-9.363 73.18-28.124 2.707-2.413 2.707-6.035 0.292-8.448l-23.588-24.503c-2.121-2.121-5.449-2.121-7.571 0-12.397 10.899-26.003 15.433-40.813 15.433-34.157 0-59.283-28.416-59.283-62.281 0-33.572 25.38-61.367 59.575-61.367 16.64 0 29.623 5.12 40.521 14.519 2.121 1.828 6.035 1.828 7.863-0.292l23.588-25.088c2.121-2.121 1.828-6.035-0.292-8.156-20.553-19.968-46.556-29.331-73.472-29.331-60.489 0-109.165 48.092-109.165 108.544 0 60.416 48.676 109.092 109.165 109.092z" />
<glyph unicode="&#xe907;" glyph-name="konftel-medium-meetings" d="M512 960c-280.649 0-512-231.351-512-512s231.351-512 512-512 512 231.351 512 512-231.351 512-512 512zM470.272 364.581c3.803 0 11.374-3.803 11.374-11.374v-49.298c0-3.803-3.803-11.374-11.374-11.374h-208.567c-7.57 0-11.374 3.803-11.374 11.374v11.337c30.354 41.728 109.97 147.895 140.325 193.426 7.57 11.374 15.177 26.551 15.177 41.728 0 18.981-15.177 37.925-45.495 37.925-22.747 0-41.728-15.177-53.102-26.551-3.803-3.803-11.374-3.803-15.177 0l-34.121 34.121c-3.803 3.803-3.803 11.374 0 15.177 0 0 41.728 53.102 106.203 53.102 75.849 0 121.381-49.298 121.381-106.203 0-26.551-7.57-45.495-18.981-68.279-15.177-30.354-60.672-87.223-83.419-121.381h87.223v-3.73zM648.521 292.498c-87.223 0-136.521 68.279-136.521 185.819s49.298 185.819 136.521 185.819 136.521-68.279 136.521-185.819-49.262-185.819-136.521-185.819zM648.521 584.521c-34.121 0-49.298-37.925-49.298-109.97 0-68.279 18.981-109.97 49.298-109.97 34.121 0 49.298 37.925 49.298 109.97s-18.944 109.97-49.298 109.97z" />
<glyph unicode="&#xe908;" glyph-name="konftel-personal-meetings" d="M515.803 436.626v98.597l-83.456-98.597zM512 960c-280.649 0-512-231.351-512-512s231.351-512 512-512 512 231.351 512 512-231.351 512-512 512zM640.951 383.525c0-3.803-3.803-11.374-11.374-11.374h-41.728v-64.475c0-3.803-3.803-11.374-11.374-11.374h-56.905c-3.803 0-11.374 3.803-11.374 11.374v64.475h-155.502c-7.57 0-11.374 3.803-11.374 11.374v56.905l185.819 219.977c0 0 3.803 3.803 7.57 3.803h37.925c3.803 0 11.374-3.803 11.374-11.374v-216.174h41.728c7.57 0 11.374-3.803 11.374-11.374v-41.728h3.84z" />
<glyph unicode="&#xe909;" glyph-name="konftel-small-meetings" d="M512 960c-280.649 0-512-231.351-512-512s231.351-512 512-512 512 231.351 512 512-231.351 512-512 512zM443.721 307.675c0-3.803-3.803-11.374-11.374-11.374h-56.905c-7.57 0-11.374 3.803-11.374 11.374v238.921h-49.298c-3.803 0-11.374 3.803-11.374 11.374v34.121c0 3.803 0 7.57 3.803 7.57l75.849 60.672h49.298c3.803 0 11.374-3.803 11.374-11.374v-341.285zM709.23 364.581c3.803 0 11.374-3.803 11.374-11.374v-49.298c0-3.803-3.803-11.374-11.374-11.374h-212.37c-7.57 0-11.374 3.803-11.374 11.374v11.337c30.354 41.728 109.97 147.895 140.325 193.426 7.57 11.374 15.177 26.551 15.177 41.728 0 18.981-15.177 37.925-45.495 37.925-22.747 0-41.728-15.177-53.102-26.551-3.803-3.803-11.374-3.803-15.177 0l-34.121 34.121c-3.803 3.803-3.803 11.374 0 15.177 0 0 41.728 53.102 106.203 53.102 75.849 0 121.381-49.298 121.381-106.203 0-26.551-7.57-45.495-18.981-68.279-15.177-30.354-60.672-87.223-83.419-121.381h91.026v-3.73z" />
<glyph unicode="&#xe90a;" glyph-name="konftel-battery" d="M725.65 844.763h-427.301c-20.334 0-36.864-16.494-36.864-36.864v-835.035c0-20.37 16.53-36.864 36.864-36.864h427.264c20.37 0 36.864 16.494 36.864 36.864v835.035c0.037 20.37-16.457 36.864-36.827 36.864zM688.786 9.728h-353.536v761.307h353.536v-761.307zM434.871 886.235h154.222c20.37 0 36.901 16.494 36.901 36.864s-16.53 36.901-36.901 36.901h-154.222c-20.37 0-36.864-16.53-36.864-36.901 0-20.334 16.494-36.864 36.864-36.864zM450.377 133.522l170.386 195.255-87.113 19.822 40.85 176.165-171.264-194.523 87.259-20.224z" />
<glyph unicode="&#xe90b;" glyph-name="konftel-conference-bridge" d="M1003.744 486.428l-288.121 162.342c-12.249 6.874-27.24 6.764-39.379-0.293-12.139-7.093-19.598-20.073-19.598-34.15v-126.766h-126.071l-62.377 259.199c-4.278 17.77-20.183 30.311-38.465 30.311h-390.060c-21.865-0.037-39.562-17.733-39.562-39.562s17.697-39.562 39.562-39.562h358.945l50.604-210.387h-409.549c-21.865 0-39.562-17.733-39.562-39.562s17.697-39.562 39.562-39.562h409.585l-50.604-210.387h-358.981c-21.865 0-39.562-17.697-39.562-39.562s17.697-39.562 39.562-39.562h390.134c18.282 0 34.187 12.541 38.465 30.311l62.377 259.199h126.071v-126.766c0-14.187 7.605-27.313 19.964-34.333 6.070-3.474 12.834-5.192 19.598-5.192 6.947 0 13.931 1.828 20.147 5.521l288.121 170.313c12.176 7.203 19.562 20.329 19.415 34.443-0.219 14.114-7.898 27.057-20.22 34.004z" />
<glyph unicode="&#xe90c;" d="M784.896 518.547h-43.228c-3.328 0-5.741 2.743-5.741 5.741v32.951c0 3.036 2.413 5.741 5.741 5.741h134.253c3.328 0 5.741-2.743 5.741-5.741v-32.951c0-3.036-2.413-5.741-5.741-5.741h-43.228v-161.463c0-3.036-2.743-5.741-5.741-5.741h-36.279c-3.036 0-5.741 2.707-5.741 5.741v161.463z" />
<glyph unicode="&#xe90d;" d="M512 922.697c-261.742 0-474.697-212.955-474.697-474.697s212.955-474.697 474.697-474.697c261.742 0 474.697 212.955 474.697 474.697s-212.955 474.697-474.697 474.697zM488.375 423.131c0-71.79-60.453-131.328-135.095-131.328-74.167 0-134.144 59.502-134.144 131.328v195.072c0 4.718 4.242 8.96 8.96 8.96h58.112c5.193 0 8.96-4.242 8.96-8.96v-191.305c0-33.061 24.576-59.502 58.075-59.502 34.011 0 59.063 26.441 59.063 59.502v191.305c0 4.718 3.767 8.96 8.96 8.96h58.075c4.718 0 8.96-4.242 8.96-8.96v-195.072zM690.139 367.397c22.199 0 46.299 8.009 63.305 22.674 3.291 2.853 9.435 2.853 12.288-0.475l36.864-39.205c3.291-3.291 2.816-9.435-0.475-12.763-32.11-31.159-72.741-45.824-114.761-45.824-94.464 0-170.533 75.118-170.533 169.582s76.032 170.496 170.533 170.496c47.25 0 82.176-14.629 114.286-43.922 4.242-3.767 4.242-9.435 0.475-13.239l-36.864-38.254c-3.291-3.291-8.485-3.291-11.813 0-17.481 15.579-40.631 24.101-63.781 24.101-53.358 0-92.562-44.398-92.562-97.317-0.037-52.407 39.643-95.854 93.038-95.854z" />
<glyph unicode="&#xe90e;" d="M512 960c-282.331 0-512-229.669-512-512s229.669-512 512-512c282.295 0 512 229.669 512 512s-229.669 512-512 512zM512-26.697c-261.742 0-474.697 212.955-474.697 474.697s212.955 474.697 474.697 474.697c261.742 0 474.697-212.955 474.697-474.697s-212.955-474.697-474.697-474.697z" />
<glyph unicode="&#xe90f;" d="M479.415 627.163h-58.112c-5.193 0-8.96-4.242-8.96-8.96v-191.305c0-33.061-25.051-59.502-59.063-59.502-33.536 0-58.075 26.441-58.075 59.502v191.305c0 4.718-3.767 8.96-8.96 8.96h-58.112c-4.718 0-8.96-4.242-8.96-8.96v-195.072c0-71.79 59.977-131.328 134.144-131.328 74.642 0 135.095 59.502 135.095 131.328v195.072c-0.037 4.718-4.279 8.96-8.997 8.96z" />
<glyph unicode="&#xe910;" d="M689.664 560.567c23.15 0 46.299-8.485 63.781-24.101 3.291-3.291 8.485-3.291 11.813 0l36.864 38.254c3.767 3.767 3.767 9.435-0.475 13.239-32.11 29.294-67.072 43.922-114.286 43.922-94.464 0-170.533-76.032-170.533-170.496s76.032-169.582 170.533-169.582c42.057 0 82.651 14.629 114.761 45.824 3.291 3.291 3.767 9.435 0.475 12.763l-36.864 39.205c-2.816 3.291-8.96 3.291-12.288 0.475-17.006-14.629-41.106-22.674-63.305-22.674-53.358 0-93.038 43.447-93.038 95.89-0.037 52.882 39.168 97.28 92.562 97.28z" />
<glyph unicode="&#xe911;" d="M417.902 910.153c-67.657 0-122.661-55.040-122.661-122.661 0-29.33 10.35-56.247 27.575-77.385v34.121c-6.034 13.202-9.472 27.794-9.472 43.227 0 57.637 46.885 104.558 104.558 104.558s104.558-46.885 104.558-104.558c0-19.675-5.559-38.034-15.031-53.76v-29.879c20.517 21.943 33.17 51.31 33.17 83.602-0.037 67.694-55.077 122.734-122.697 122.734z" />
<glyph unicode="&#xe912;" glyph-name="konftel-features-generic" d="M198.428 18.481l482.146 482.146c22.81 22.81 54.269 35.985 86.422 33.467 20.219-1.606 41.277-0.328 62.773 4.379 84.196 18.394 150.472 88.064 163.866 173.209 5.949 37.773 1.934 74.050-9.817 106.641-7.628 21.131-122.006-136.166-143.94-138.502-26.022-2.737-126.276 92.298-127.078 115.035-0.803 22.189 162.808 144.56 141.458 152.078-28.357 10-59.488 14.124-91.896 10.985-81.897-7.92-151.896-65.328-179.45-142.845-10.949-30.766-13.832-60.401-11.131-88.393 2.445-25.182-6.35-50.145-24.233-68.028l-494.628-494.664c-33.759-33.722-33.759-88.94 0-122.699l22.81-22.81c33.759-33.759 88.977-33.759 122.699 0zM87.663 96.91c0 18.905 15.328 34.197 34.197 34.197 18.905 0 34.197-15.328 34.197-34.197s-15.328-34.197-34.197-34.197c-18.868-0.036-34.197 15.292-34.197 34.197zM306.346 513.218l-170.436 170.436c-7.19 7.19-7.299 18.722-0.255 25.803 7.044 7.044 18.576 6.934 25.803-0.255l170.436-170.436 40.072 40.072-170.654 170.618c-7.226 7.226-7.336 18.795-0.292 25.839s18.613 6.898 25.839-0.328l170.654-170.654 43.868 43.868-189.997 190.18-213.574 41.24 35.985-218.099 190.399-190.399 42.153 42.116zM973.709 114.173l-291.821 291.821-44.196-44.196 233.646-233.646c9.671-9.671 11.788-23.211 4.744-30.255s-20.584-4.927-30.255 4.744l-233.646 233.646-38.43-38.43 233.756-233.756c9.598-9.598 11.679-23.102 4.635-30.146s-20.547-4.963-30.146 4.635l-233.756 233.792-43.43-43.43 291.784-291.894 177.114 177.114z" />
<glyph unicode="&#xe913;" glyph-name="konftel-HD" d="M512 960c-282.331 0-512-229.669-512-512s229.669-512 512-512c282.295 0 512 229.669 512 512s-229.669 512-512 512zM512-26.697c-261.742 0-474.697 212.955-474.697 474.697s212.955 474.697 474.697 474.697c261.742 0 474.697-212.955 474.697-474.697s-212.955-474.697-474.697-474.697zM491.41 627.163h-56.21c-5.193 0-8.96-4.242-8.96-8.96v-119.040h-135.095v119.040c0 4.718-3.767 8.96-8.96 8.96h-56.247c-4.718 0-8.96-4.242-8.96-8.96v-312.686c0-4.718 4.242-8.96 8.96-8.96h56.21c5.193 0 8.96 4.242 8.96 8.96v124.233h135.095v-124.233c0-4.718 3.767-8.96 8.96-8.96h56.21c4.718 0 8.96 4.242 8.96 8.96v312.686c0.037 4.718-4.206 8.96-8.923 8.96zM681.801 627.163h-115.237c-4.718 0-8.521-4.242-8.521-8.96v-312.686c0-4.718 3.767-8.96 8.521-8.96h115.237c91.173 0 165.778 74.167 165.778 165.778 0.037 90.661-74.606 164.827-165.778 164.827zM677.083 366.446h-45.349v191.269h45.349c53.358 0 92.123-42.021 92.123-95.415 0-53.833-38.766-95.854-92.123-95.854z" />
<glyph unicode="&#xe914;" glyph-name="konftel-LCD" d="M70.4 509.111c-1.902 0-3.803 0.731-5.266 2.194-2.926 2.926-2.926 7.643 0 10.569l179.566 179.566c2.926 2.926 7.643 2.926 10.569 0s2.926-7.643 0-10.569l-179.566-179.566c-1.499-1.463-3.401-2.194-5.303-2.194zM72.594 566.747c-1.902 0-3.803 0.731-5.266 2.194-2.926 2.926-2.926 7.643 0 10.569l119.698 119.698c2.926 2.926 7.643 2.926 10.569 0s2.926-7.643 0-10.569l-119.698-119.698c-1.463-1.463-3.365-2.194-5.303-2.194zM74.825 624.384c-1.902 0-3.803 0.731-5.266 2.194-2.926 2.926-2.926 7.643 0 10.569l59.867 59.867c2.926 2.926 7.643 2.926 10.569 0s2.926-7.643 0-10.569l-59.904-59.867c-1.463-1.463-3.365-2.194-5.266-2.194zM1006.592 764.050h-989.184c-9.618 0-17.408-7.826-17.408-17.445v-597.248c0-9.618 7.79-17.408 17.408-17.408h989.147c9.618 0 17.408 7.79 17.408 17.408v597.248c0.037 9.618-7.753 17.445-17.371 17.445zM984.21 188.782c0-9.399-7.643-17.042-17.042-17.042h-910.336c-9.399 0-17.042 7.643-17.042 17.042v518.437c0 9.399 7.643 17.042 17.042 17.042h910.336c9.399 0 17.042-7.643 17.042-17.042v-518.437z" />
<glyph unicode="&#xe915;" d="M590.446 787.456c0 95.159-77.422 172.544-172.544 172.544s-172.544-77.385-172.544-172.544c0-60.014 30.83-112.896 77.458-143.835v22.418c-36.059 28.306-59.319 72.155-59.319 121.417 0 85.138 69.266 154.405 154.405 154.405s154.441-69.266 154.441-154.405c0-51.785-25.71-97.573-64.914-125.586v-21.614c49.664 30.318 83.017 84.882 83.017 147.2z" />
<glyph unicode="&#xe916;" d="M417.902 614.912c20.151 0 39.387 3.657 57.381 10.021h-114.761c17.957-6.363 37.23-10.021 57.381-10.021z" />
<glyph unicode="&#xe917;" d="M507.392 703.854v54.821h-184.576v-133.705h184.576v36.901z" />
<glyph unicode="&#xe918;" glyph-name="konftel-line-bridge" d="M1003.779 486.431l-288.142 162.354c-12.25 6.911-27.205 6.765-39.382-0.293-12.14-7.094-19.599-20.075-19.599-34.153v-126.775h-126.080l-62.345 259.218c-4.278 17.771-20.185 30.313-38.468 30.313h-390.125c-21.867-0.037-39.565-17.735-39.565-39.565s17.698-39.565 39.565-39.565h358.97l50.608-210.402h-409.578c-21.867 0-39.565-17.735-39.565-39.565s17.698-39.565 39.565-39.565h409.615l-50.608-210.402h-359.007c-21.867 0-39.565-17.698-39.565-39.565s17.698-39.565 39.565-39.565h390.161c18.283 0 34.189 12.542 38.468 30.313l62.345 259.218h126.080v-126.812c0-14.188 7.606-27.315 19.965-34.336 6.070-3.474 12.835-5.192 19.599-5.192 6.948 0 13.932 1.828 20.111 5.485l288.142 170.325c12.177 7.204 19.563 20.331 19.417 34.445-0.146 14.188-7.825 27.132-20.148 34.080z" />
<glyph unicode="&#xe919;" glyph-name="konftel-NFC" d="M1021.298 874.758c-2.665 41.763-34.717 73.414-77.247 75.969-46.911 2.774-198.776 5.147-242.474 5.147 78.014-53.883 88.674-155.225 96.048-343.56 4.308-111.6 0.402-502.545 0.11-519.119l-2.044-106.635-410.111 410.111v128.356l326.074-326.147c0.84 64.543 1.716 148.726 1.716 225.682 0 74.984-1.095 142.849-3.249 178.588-12.266 205.238-31.395 301.395-138.541 339.106-32.746 11.536-63.302 14.274-114.228 14.931-42.092 0.548-335.127 0.329-377.438-1.971-44.976-2.409-75.166-35.046-77.211-77.101-2.044-41.581-2.701-816.608 0-858.809 2.665-41.8 34.717-73.414 77.211-75.933 46.947-2.847 198.813-3.176 242.474-3.176-78.014 53.847-88.71 155.188-96.011 343.524-4.308 111.6-0.402 502.545-0.073 519.119l2.008 106.635 410.111-410.184v-128.319l-326.11 326.11c-0.84-64.507-1.679-148.69-1.679-225.645 0-74.984 1.095-142.849 3.213-178.552 12.266-205.275 31.395-301.432 138.541-339.106 32.783-11.536 63.338-14.31 114.265-15.004 42.055-0.511 335.127-0.256 377.401 2.008 44.976 2.409 75.166 35.046 77.247 77.138 2.008 41.581 2.701 814.637 0 856.838v0z" />
<glyph unicode="&#xe91a;" glyph-name="konftel-SD-card" d="M824.174 647.826c0-172.409-139.765-312.174-312.174-312.174s-312.174 139.765-312.174 312.174c0 172.409 139.765 312.174 312.174 312.174s312.174-139.765 312.174-312.174zM377.234 119.186c0 44.142-33.755 80.091-80.823 80.091h-110.885c-4.096 0-7.058-3.328-7.058-7.058v-245.467c0-3.694 2.962-7.058 7.058-7.058h44.105c3.694 0 7.058 3.328 7.058 7.058v94.574h25.6l49.335-98.267c0.731-1.499 2.962-3.328 5.925-3.328h49.335c6.29 0 8.887 5.925 6.29 10.752l-50.798 94.171c34.45 12.983 54.857 40.411 54.857 74.533zM291.584 88.43h-54.894v57.856h54.894c15.214 0 28.197-10.752 28.197-28.197s-13.019-29.659-28.197-29.659zM584.521 199.278h-153.527c-4.096 0-7.058-3.328-7.058-7.058v-245.467c0-3.694 2.962-7.058 7.058-7.058h153.527c4.096 0 7.058 3.328 7.058 7.058v40.411c0 3.694-2.962 7.058-7.058 7.058h-102.729v50.066h84.553c3.694 0 7.058 2.962 7.058 7.058v40.411c0 3.694-3.328 7.058-7.058 7.058h-84.553v45.97h102.729c4.096 0 7.058 3.365 7.058 7.058v40.411c0 3.694-2.962 7.022-7.058 7.022zM814.811 12.763c-2.231 2.597-7.058 2.597-9.618 0.402-13.349-11.483-29.294-17.81-49.701-17.81-41.911 0-73.033 34.121-73.033 75.264 0 41.545 30.757 76.361 72.667 76.361 18.176 0 34.853-5.559 50.066-18.907 2.597-2.597 6.656-2.597 9.289 0l28.928 30.062c2.962 2.962 2.962 7.424-0.366 10.386-25.198 23.003-52.626 34.487-89.746 34.487-74.167 0-133.851-59.685-133.851-133.888 0-74.167 59.685-133.12 133.851-133.12 33.024 0 64.914 11.483 90.112 35.986 2.597 2.597 2.962 7.424 0.366 10.021l-28.965 30.757z" />
<glyph unicode="&#xe91b;" glyph-name="konftel-software-upgrades" d="M366.738 684.727h292.389v-74.313h-292.389v74.313zM512.951 160.146c28.343 56.064 63.488 104.229 105.326 144.494s90.514 72.411 145.993 96.512v8.302h-105.143v176.055h-292.389v-176.018h-105.106v-8.302c54.784-23.735 103.131-55.771 145.189-96.037 42.021-40.265 77.385-88.613 106.13-145.006zM366.738 865.17h292.389v-34.231h-292.389v34.231zM366.738 774.766h292.389v-53.76h-292.389v53.76zM366.738 960h292.389v-23.918h-292.389v23.918zM962.523 160.183h-24.942c-11.008 0-19.017-8.997-19.017-19.017v-137.179h-813.129v137.179c0 10.021-8.009 19.017-18.030 19.017h-25.929c-10.021 0-19.017-8.997-19.017-19.017v-186.149c0-10.021 8.997-19.017 19.017-19.017h901.083c10.021 0 19.017 8.997 19.017 19.017v186.149c-0.037 10.021-9.033 19.017-19.054 19.017z" />
<glyph unicode="&#xe91c;" d="M779.447-42.13c51.749 125.184 69.595 221.184 71.461 231.717l2.523 268.763c-0.293 4.827-4.206 51.858-49.225 54.382-18.761 1.134-32.695-6.473-42.533-22.967-4.645-7.717-13.605-11.447-22.345-9.216-8.741 2.194-14.848 9.655-15.323 18.615-1.865 39.68-13.312 54.711-43.63 57.563-21.358 1.938-36.864-5.961-47.579-24.21-4.389-7.497-12.617-11.41-21.285-9.874-8.411 1.499-14.811 7.936-16.311 16.384-5.778 32.219-19.346 49.006-40.375 49.92-20.626 0.878-37.303-8.119-49.591-26.807-4.901-7.461-13.97-10.752-22.565-8.229-8.704 2.56-14.592 10.386-14.629 19.419l-1.499 216.832c0.037 6.254-2.085 36.023-46.994 37.998-44.946 2.048-53.358-31.598-54.601-38.327l0.805-455.936c0-8.302-4.937-15.726-12.654-18.834-7.753-3.145-16.421-1.28-22.235 4.681l-59.063 60.855c-3.986 4.169-38.729 38.51-77.166 4.645-38.51-33.865-20.151-77.422-16.201-82.432l1.097-1.426c226.779-211.127 271.433-319.598 279.735-347.831 0.366-1.243 0.293-2.45 0.329-3.694l318.757 2.853c0.073 1.609 0.402 3.438 1.097 5.157z" />
<glyph unicode="&#xe91d;" d="M805.742 539.867c-22.674 1.097-41.655-6.034-56.101-21.175-3.657 25.271-16.384 60.379-66.706 65.061-26.149 2.45-48.457-6.254-64.439-24.759-10.277 35.621-32.073 55.735-62.427 57.051-27.941 1.17-47.543-10.057-60.928-23.479l-1.353 197.266c0.549 21.467-13.97 62.793-72.96 65.39-69.083 2.962-81.371-54.126-82.542-60.635l-0.366-2.414 0.695-441.417-47.067 48.494c-19.054 20.37-67.584 47.835-114.761 6.29-20.297-17.847-31.781-40.594-33.17-65.792-1.39-25.381 7.753-47.543 14.080-54.418l2.779-3.328c227.986-212.151 267.264-317.294 272.786-336.201 1.719-5.961 7.168-9.801 13.019-9.801 1.28 0 2.56 0.183 3.84 0.549 5.961 1.755 9.582 7.241 9.545 13.166 0 1.243 0.037 2.45-0.329 3.694-8.302 28.233-52.955 136.741-279.735 347.831l-1.097 1.426c-3.95 5.010-22.309 48.603 16.201 82.432 38.4 33.865 73.179-0.475 77.166-4.645l59.063-60.855c5.778-5.961 14.482-7.79 22.235-4.681 7.717 3.145 12.654 10.533 12.654 18.834l-0.841 456.009c1.207 6.729 9.655 40.375 54.601 38.327 44.91-1.975 47.031-31.744 46.994-37.998l1.499-216.832c0.073-9.033 5.961-16.823 14.629-19.419 8.594-2.523 17.664 0.731 22.565 8.229 12.288 18.688 28.965 27.685 49.591 26.807 21.029-0.914 34.597-17.701 40.375-49.92 1.499-8.448 7.899-14.885 16.311-16.384 8.667-1.536 16.859 2.377 21.285 9.874 10.715 18.286 26.222 26.185 47.579 24.21 30.318-2.816 41.765-17.883 43.63-57.563 0.439-8.96 6.583-16.421 15.323-18.615 8.741-2.231 17.701 1.499 22.345 9.216 9.838 16.494 23.771 24.101 42.533 22.967 44.983-2.523 48.896-49.554 49.225-54.382l-2.523-268.763c-1.865-10.533-19.712-106.533-71.461-231.717-0.731-1.719-1.061-3.547-1.024-5.303 0.037-5.303 3.218-10.313 8.411-12.434 6.912-2.779 14.848 0.439 17.737 7.387 52.846 127.817 71.205 226.523 73.070 237.166l2.926 274.651c-1.609 28.526-19.163 77.495-74.862 80.603z" />
<glyph unicode="&#xe91e;" d="M765.312 551.712h-35.776c-9.664 0-20.928 8.768-24.64 19.136-3.424 9.6-7.392 19.168-11.904 28.416-4.768 9.824-3.008 23.968 3.84 30.816l25.472 25.472c17.856 17.824 17.856 46.848 0 64.704l-41.312 41.312c-8.64 8.64-20.128 13.376-32.32 13.376-12.256 0-23.712-4.736-32.352-13.376l-25.44-25.44c-4.096-4.128-10.912-6.528-18.24-6.528-4.544 0-8.896 0.928-12.576 2.688-9.248 4.48-18.816 8.512-28.448 11.904-10.368 3.68-19.136 14.976-19.136 24.64v35.712c0 25.216-20.512 45.728-45.728 45.728h-58.432c-25.216 0-45.728-20.512-45.728-45.728v-35.744c0-9.664-8.768-20.96-19.136-24.64-9.6-3.424-19.2-7.424-28.448-11.872-3.616-1.76-8.064-2.72-12.576-2.72-7.36 0-14.176 2.464-18.272 6.56l-25.376 25.408c-8.64 8.64-20.128 13.408-32.32 13.408-12.256 0-23.712-4.768-32.352-13.408l-41.376-41.344c-8.64-8.64-13.408-20.096-13.408-32.352 0-12.192 4.768-23.648 13.376-32.32l25.472-25.472c6.848-6.848 8.608-20.96 3.872-30.816-4.48-9.28-8.512-18.816-11.904-28.416-3.68-10.336-14.976-19.136-24.672-19.136h-35.744c-25.216 0.032-45.728-20.48-45.728-45.696v-58.464c0-25.216 20.512-45.728 45.728-45.728h35.744c9.664 0 20.96-8.704 24.672-19.104 3.392-9.568 7.424-19.168 11.904-28.416 4.736-9.824 2.976-23.936-3.872-30.784l-25.472-25.472c-17.824-17.856-17.824-46.848 0-64.704l41.376-41.376c8.64-8.64 20.128-13.408 32.352-13.408 12.192 0 23.68 4.768 32.32 13.408l25.472 25.44c4.096 4.096 10.912 6.56 18.24 6.56 4.544 0 8.896-0.896 12.544-2.72 9.248-4.448 18.848-8.448 28.448-11.872 10.336-3.712 19.104-14.976 19.104-24.672v-35.744c0-25.216 20.512-45.728 45.728-45.728h58.432c25.216 0 45.76 20.512 45.76 45.728v35.744c0 9.696 8.736 20.96 19.104 24.672 9.632 3.392 19.2 7.392 28.448 11.872 3.584 1.76 8.032 2.72 12.512 2.72 7.36 0 14.208-2.464 18.272-6.56l25.44-25.44c8.64-8.64 20.096-13.408 32.352-13.408 12.192 0 23.68 4.768 32.32 13.408l41.344 41.376c17.824 17.856 17.824 46.848 0 64.704l-25.44 25.44c-6.848 6.848-8.608 20.96-3.84 30.784 4.48 9.248 8.48 18.816 11.872 28.448 3.68 10.368 14.976 19.104 24.672 19.104h35.744c25.216 0 45.728 20.512 45.728 45.728v58.432c0.032 25.248-20.48 45.76-45.696 45.76zM437.568 322.080c-85.312 0-154.656 69.408-154.656 154.688s69.344 154.656 154.656 154.656c85.248 0 154.624-69.376 154.624-154.656 0-85.248-69.376-154.688-154.624-154.688z" />
<glyph unicode="&#xe91f;" d="M932.32 271.072l-23.36 9.28c-6.336 2.496-11.392 11.168-11.136 18.88 0.256 7.168 0.128 14.432-0.384 21.664-0.544 7.648 4.256 16.448 10.496 19.136l23.232 10.048c16.288 7.008 23.808 25.984 16.768 42.272l-16.288 37.696c-3.392 7.872-9.664 13.984-17.664 17.12-8 3.168-16.736 3.040-24.608-0.352l-23.232-10.048c-3.744-1.632-8.832-1.44-13.6 0.448-2.976 1.184-5.568 2.912-7.52 5.024-4.896 5.312-10.112 10.432-15.52 15.168-5.824 5.088-8.608 14.752-6.112 21.056l9.28 23.36c6.528 16.48-1.536 35.2-18.016 41.76l-38.176 15.168c-16.48 6.528-35.2-1.536-41.76-18.016l-9.28-23.36c-2.496-6.304-11.168-11.424-18.88-11.136-7.168 0.256-14.464 0.128-21.664-0.384-2.784-0.192-5.984 0.32-8.896 1.472-4.8 1.92-8.608 5.28-10.24 9.024l-10.016 23.168c-3.392 7.872-9.664 13.984-17.664 17.152s-16.736 3.040-24.64-0.384l-37.728-16.288c-7.904-3.424-13.984-9.664-17.152-17.664-3.168-7.968-3.040-16.704 0.352-24.576l10.048-23.232c2.688-6.24 0.192-15.936-5.472-21.152-5.344-4.896-10.432-10.112-15.136-15.488-5.088-5.792-14.752-8.608-21.088-6.112l-23.36 9.28c-16.48 6.528-35.2-1.536-41.728-18.016l-15.168-38.208c-6.56-16.48 1.536-35.2 18.016-41.76l23.36-9.28c6.336-2.496 11.456-11.136 11.168-18.88-0.256-7.136-0.128-14.432 0.416-21.664 0.544-7.648-4.256-16.416-10.528-19.136l-23.232-10.048c-16.288-7.040-23.808-25.984-16.768-42.272l16.32-37.76c3.424-7.904 9.664-13.984 17.664-17.152 7.968-3.168 16.736-3.040 24.608 0.384l23.232 10.016c3.744 1.6 8.832 1.44 13.632-0.448 2.976-1.184 5.568-2.912 7.488-5.024 4.896-5.312 10.112-10.4 15.52-15.136 5.792-5.088 8.608-14.752 6.080-21.088l-9.28-23.36c-6.528-16.48 1.536-35.2 18.016-41.76l38.176-15.168c16.48-6.528 35.232 1.536 41.76 18.016l9.28 23.36c2.528 6.336 11.136 11.456 18.88 11.168 7.168-0.288 14.464-0.16 21.664 0.384 2.784 0.224 5.952-0.32 8.896-1.472 4.8-1.92 8.64-5.28 10.24-9.024l10.016-23.232c3.392-7.872 9.664-13.984 17.664-17.152 7.968-3.168 16.704-3.040 24.608 0.384l37.76 16.32c16.288 7.040 23.808 26.016 16.768 42.272l-10.016 23.232c-2.688 6.24-0.192 15.936 5.472 21.12 5.312 4.864 10.432 10.112 15.136 15.52 5.088 5.824 14.752 8.608 21.056 6.080l23.36-9.28c16.48-6.528 35.2 1.536 41.76 18.048l15.168 38.176c6.496 16.576-1.568 35.296-18.048 41.856z" />
<glyph unicode="&#xe920;" d="M632.704 45.728c-4.928 0-9.888 0.928-14.592 2.816l-38.176 15.168c-9.792 3.904-17.504 11.392-21.696 21.088s-4.352 20.448-0.48 30.272l9.28 23.36c1.216 3.072-0.32 9.472-4.096 12.8-5.568 4.864-10.976 10.144-16.064 15.68-1.152 1.28-2.848 2.4-4.8 3.168-3.52 1.408-6.464 1.152-7.936 0.512l-23.232-10.016c-9.728-4.192-20.448-4.352-30.272-0.448s-17.536 11.392-21.728 21.088l-16.32 37.76c-8.64 20.032 0.64 43.36 20.64 52l23.264 10.016c3.040 1.312 6.432 6.88 6.080 11.808-0.544 7.552-0.704 15.136-0.416 22.464 0.192 4.992-3.392 10.496-6.496 11.712l-23.36 9.28c-9.792 3.904-17.504 11.36-21.696 21.088-4.192 9.696-4.352 20.448-0.448 30.272l15.168 38.208c3.904 9.792 11.392 17.504 21.088 21.696s20.448 4.352 30.272 0.448l23.36-9.28c3.072-1.216 9.472 0.32 12.768 4.096 4.768 5.472 10.080 10.88 15.712 16.064 3.648 3.328 4.992 9.728 3.68 12.768l-10.048 23.232c-4.192 9.728-4.352 20.48-0.448 30.24 3.904 9.824 11.392 17.536 21.088 21.728l37.728 16.288c9.728 4.192 20.48 4.352 30.304 0.448 9.792-3.904 17.504-11.36 21.696-21.088l10.016-23.2c0.64-1.472 2.624-3.68 6.176-5.088 1.856-0.736 3.968-1.056 5.632-0.992 7.52 0.544 15.072 0.672 22.464 0.384 4.992 0.128 10.528 3.392 11.744 6.496l9.28 23.36c3.904 9.792 11.392 17.504 21.088 21.696 9.728 4.192 20.448 4.352 30.272 0.448l38.176-15.168c20.288-8.064 30.24-31.104 22.176-51.36l-9.28-23.36c-1.216-3.072 0.32-9.472 4.096-12.768 5.536-4.864 10.976-10.144 16.096-15.744 1.184-1.28 2.816-2.368 4.8-3.136 3.552-1.408 6.496-1.184 7.936-0.544l23.232 10.048c9.696 4.192 20.48 4.352 30.272 0.448 9.824-3.904 17.536-11.392 21.728-21.088l16.288-37.696c4.192-9.696 4.352-20.448 0.448-30.304-3.904-9.824-11.392-17.568-21.088-21.728l-23.232-10.016c-3.008-1.312-6.4-6.88-6.048-11.808 0.544-7.392 0.672-14.944 0.416-22.464-0.16-5.024 3.392-10.528 6.464-11.744l23.392-9.28c20.256-8.032 30.208-31.072 22.176-51.36l-15.168-38.208c-8.064-20.288-31.104-30.208-51.36-22.176l-23.36 9.28c-3.072 1.248-9.472-0.32-12.768-4.096-4.8-5.536-10.112-10.976-15.68-16.096-3.648-3.328-4.992-9.696-3.68-12.736l10.016-23.232c8.64-20.032-0.64-43.36-20.64-52l-37.76-16.32c-9.728-4.192-20.448-4.352-30.272-0.48-9.824 3.904-17.536 11.392-21.728 21.088l-10.016 23.232c-0.64 1.472-2.624 3.68-6.176 5.088-1.888 0.768-3.968 1.152-5.568 0.96-7.616-0.544-15.168-0.672-22.56-0.384-5.12 0-10.496-3.424-11.712-6.496l-9.28-23.36c-3.904-9.792-11.392-17.504-21.088-21.696-5.088-2.048-10.432-3.136-15.744-3.136zM536.992 185.856c3.424 0 7.040-0.704 10.528-2.080 4.096-1.632 7.648-4.032 10.272-6.976 4.672-5.056 9.696-9.952 14.88-14.496 8.224-7.232 11.776-20.128 8.096-29.376l-9.28-23.36c-2.432-6.144-2.336-12.864 0.288-18.944s7.456-10.784 13.6-13.216l38.176-15.168c6.144-2.432 12.864-2.336 18.944 0.288s10.784 7.456 13.216 13.568l9.28 23.36c3.68 9.28 15.168 16.48 26.016 15.84 6.88-0.256 13.888-0.16 20.896 0.352 3.904 0.352 8.16-0.384 12.16-1.984 6.688-2.656 11.904-7.392 14.304-12.96l10.016-23.232c2.624-6.080 7.456-10.784 13.6-13.216 6.112-2.432 12.864-2.336 18.944 0.288l37.76 16.32c12.512 5.408 18.336 20.032 12.928 32.544l-10.016 23.2c-3.968 9.184-0.768 22.144 7.264 29.536 5.184 4.736 10.080 9.76 14.528 14.912 7.232 8.224 20.128 11.776 29.376 8.128l23.36-9.28c12.704-5.056 27.104 1.184 32.128 13.888l15.168 38.176c5.024 12.704-1.216 27.136-13.888 32.16l-23.36 9.28c-9.248 3.68-16.192 15.104-15.808 26.016 0.256 7.008 0.128 14.016-0.384 20.864-0.8 10.88 5.76 22.496 14.912 26.496l23.264 10.048c6.048 2.624 10.752 7.424 13.184 13.6 2.432 6.144 2.336 12.896-0.256 18.944l-16.288 37.696c-2.624 6.080-7.456 10.752-13.6 13.184s-12.864 2.336-18.976-0.256l-23.2-10.048c-5.536-2.4-12.608-2.272-19.264 0.384-4.032 1.6-7.552 3.968-10.24 6.88-4.768 5.184-9.792 10.112-14.944 14.592-8.224 7.2-11.808 20.096-8.128 29.376l9.28 23.36c5.024 12.672-1.184 27.104-13.888 32.128l-38.176 15.168c-6.144 2.432-12.864 2.336-18.944-0.288s-10.784-7.456-13.216-13.6l-9.28-23.36c-3.68-9.28-15.488-16.448-26.048-15.808-6.88 0.224-13.92 0.128-20.896-0.352-3.904-0.32-8.224 0.416-12.16 1.984-6.688 2.656-11.904 7.392-14.304 12.992l-10.016 23.168c-2.624 6.080-7.456 10.784-13.568 13.216-6.144 2.432-12.864 2.336-18.976-0.288l-37.728-16.288c-6.080-2.624-10.784-7.456-13.216-13.632-2.432-6.112-2.336-12.832 0.288-18.944l10.016-23.232c3.968-9.184 0.768-22.144-7.264-29.536-5.248-4.8-10.144-9.824-14.592-14.912-7.2-8.224-20.128-11.776-29.376-8.128l-23.36 9.28c-12.672 5.024-27.104-1.184-32.128-13.856l-15.168-38.208c-2.432-6.144-2.336-12.864 0.288-18.944s7.456-10.752 13.568-13.184l23.36-9.28c9.28-3.68 16.224-15.104 15.808-26.048-0.256-6.816-0.128-13.824 0.384-20.832 0.8-10.88-5.76-22.496-14.976-26.464l-23.264-10.016c-12.512-5.408-18.336-20.032-12.928-32.576l16.32-37.76c2.624-6.080 7.456-10.784 13.6-13.216s12.864-2.336 18.944 0.288l23.232 10.016c2.848 1.248 5.824 1.824 8.928 1.824z" />
<glyph unicode="&#xe921;" d="M738.778 408.194c55.819-22.154 83.111-85.363 60.957-141.183s-85.363-83.111-141.183-60.957c-55.819 22.154-83.111 85.363-60.957 141.183s85.363 83.111 141.183 60.957z" />
<glyph unicode="&#xe922;" d="M698.496 190.944c-14.24 0-28.672 2.624-42.688 8.192-59.52 23.616-88.736 91.264-65.088 150.816 23.648 59.52 91.264 88.704 150.816 65.088 28.8-11.424 51.424-33.408 63.712-61.92 12.32-28.512 12.8-60.064 1.376-88.864-18.112-45.504-61.888-73.312-108.128-73.312zM661.28 212.896c51.936-20.64 110.944 4.896 131.552 56.832 9.984 25.12 9.536 52.64-1.184 77.536-10.752 24.896-30.496 44.064-55.584 54.048-51.936 20.64-110.976-4.864-131.584-56.8-20.64-51.968 4.864-111.008 56.8-131.616z" />
<glyph unicode="&#xe923;" d="M765.312 551.712h-35.776c-9.664 0-20.928 8.768-24.64 19.136-3.424 9.6-7.392 19.168-11.904 28.416-4.768 9.824-3.008 23.968 3.84 30.816l25.472 25.472c17.856 17.824 17.856 46.848 0 64.704l-41.312 41.312c-8.64 8.64-20.128 13.376-32.32 13.376-12.256 0-23.712-4.736-32.352-13.376l-25.44-25.44c-4.096-4.128-10.912-6.528-18.24-6.528-4.544 0-8.896 0.928-12.576 2.688-9.248 4.48-18.816 8.512-28.448 11.904-10.368 3.68-19.136 14.976-19.136 24.64v35.712c0 25.216-20.512 45.728-45.728 45.728h-58.432c-25.216 0-45.728-20.512-45.728-45.728v-35.744c0-9.664-8.768-20.96-19.136-24.64-9.6-3.424-19.2-7.424-28.448-11.872-3.616-1.76-8.064-2.72-12.576-2.72-7.36 0-14.176 2.464-18.272 6.56l-25.376 25.408c-8.64 8.64-20.128 13.408-32.32 13.408-12.256 0-23.712-4.768-32.352-13.408l-41.376-41.344c-8.64-8.64-13.408-20.096-13.408-32.352 0-12.192 4.768-23.648 13.376-32.32l25.472-25.472c6.848-6.848 8.608-20.96 3.872-30.816-4.48-9.28-8.512-18.816-11.904-28.416-3.68-10.336-14.976-19.136-24.672-19.136h-35.744c-25.216 0.032-45.728-20.48-45.728-45.696v-58.464c0-25.216 20.512-45.728 45.728-45.728h35.744c9.664 0 20.96-8.704 24.672-19.104 3.392-9.568 7.424-19.168 11.904-28.416 4.736-9.824 2.976-23.936-3.872-30.784l-25.472-25.472c-17.824-17.856-17.824-46.848 0-64.704l41.376-41.376c8.64-8.64 20.128-13.408 32.352-13.408 12.192 0 23.68 4.768 32.32 13.408l25.472 25.44c4.096 4.096 10.912 6.56 18.24 6.56 4.544 0 8.896-0.896 12.544-2.72 9.248-4.448 18.848-8.448 28.448-11.872 10.336-3.712 19.104-14.976 19.104-24.672v-35.744c0-25.216 20.512-45.728 45.728-45.728h58.432c25.216 0 45.76 20.512 45.76 45.728v35.744c0 9.696 8.736 20.96 19.104 24.672 9.632 3.392 19.2 7.392 28.448 11.872 3.584 1.76 8.032 2.72 12.512 2.72 7.36 0 14.208-2.464 18.272-6.56l25.44-25.44c8.64-8.64 20.096-13.408 32.352-13.408 12.192 0 23.68 4.768 32.32 13.408l41.344 41.376c17.824 17.856 17.824 46.848 0 64.704l-25.44 25.44c-6.848 6.848-8.608 20.96-3.84 30.784 4.48 9.248 8.48 18.816 11.872 28.448 3.68 10.368 14.976 19.104 24.672 19.104h35.744c25.216 0 45.728 20.512 45.728 45.728v58.432c0.032 25.248-20.48 45.76-45.696 45.76zM437.568 322.080c-85.312 0-154.656 69.408-154.656 154.688s69.344 154.656 154.656 154.656c85.248 0 154.624-69.376 154.624-154.656 0-85.248-69.376-154.688-154.624-154.688z" />
<glyph unicode="&#xe924;" d="M932.32 271.072l-23.36 9.28c-6.336 2.496-11.392 11.168-11.136 18.88 0.256 7.168 0.128 14.432-0.384 21.664-0.544 7.648 4.256 16.448 10.496 19.136l23.232 10.048c16.288 7.008 23.808 25.984 16.768 42.272l-16.288 37.696c-3.392 7.872-9.664 13.984-17.664 17.12-8 3.168-16.736 3.040-24.608-0.352l-23.232-10.048c-3.744-1.632-8.832-1.44-13.6 0.448-2.976 1.184-5.568 2.912-7.52 5.024-4.896 5.312-10.112 10.432-15.52 15.168-5.824 5.088-8.608 14.752-6.112 21.056l9.28 23.36c6.528 16.48-1.536 35.2-18.016 41.76l-38.176 15.168c-16.48 6.528-35.2-1.536-41.76-18.016l-9.28-23.36c-2.496-6.304-11.168-11.424-18.88-11.136-7.168 0.256-14.464 0.128-21.664-0.384-2.784-0.192-5.984 0.32-8.896 1.472-4.8 1.92-8.608 5.28-10.24 9.024l-10.016 23.168c-3.392 7.872-9.664 13.984-17.664 17.152s-16.736 3.040-24.64-0.384l-37.728-16.288c-7.904-3.424-13.984-9.664-17.152-17.664-3.168-7.968-3.040-16.704 0.352-24.576l10.048-23.232c2.688-6.24 0.192-15.936-5.472-21.152-5.344-4.896-10.432-10.112-15.136-15.488-5.088-5.792-14.752-8.608-21.088-6.112l-23.36 9.28c-16.48 6.528-35.2-1.536-41.728-18.016l-15.168-38.208c-6.56-16.48 1.536-35.2 18.016-41.76l23.36-9.28c6.336-2.496 11.456-11.136 11.168-18.88-0.256-7.136-0.128-14.432 0.416-21.664 0.544-7.648-4.256-16.416-10.528-19.136l-23.232-10.048c-16.288-7.040-23.808-25.984-16.768-42.272l16.32-37.76c3.424-7.904 9.664-13.984 17.664-17.152 7.968-3.168 16.736-3.040 24.608 0.384l23.232 10.016c3.744 1.6 8.832 1.44 13.632-0.448 2.976-1.184 5.568-2.912 7.488-5.024 4.896-5.312 10.112-10.4 15.52-15.136 5.792-5.088 8.608-14.752 6.080-21.088l-9.28-23.36c-6.528-16.48 1.536-35.2 18.016-41.76l38.176-15.168c16.48-6.528 35.232 1.536 41.76 18.016l9.28 23.36c2.528 6.336 11.136 11.456 18.88 11.168 7.168-0.288 14.464-0.16 21.664 0.384 2.784 0.224 5.952-0.32 8.896-1.472 4.8-1.92 8.64-5.28 10.24-9.024l10.016-23.232c3.392-7.872 9.664-13.984 17.664-17.152 7.968-3.168 16.704-3.040 24.608 0.384l37.76 16.32c16.288 7.040 23.808 26.016 16.768 42.272l-10.016 23.232c-2.688 6.24-0.192 15.936 5.472 21.12 5.312 4.864 10.432 10.112 15.136 15.52 5.088 5.824 14.752 8.608 21.056 6.080l23.36-9.28c16.48-6.528 35.2 1.536 41.76 18.048l15.168 38.176c6.496 16.576-1.568 35.296-18.048 41.856z" />
<glyph unicode="&#xe925;" d="M632.704 45.728c-4.928 0-9.888 0.928-14.592 2.816l-38.176 15.168c-9.792 3.904-17.504 11.392-21.696 21.088s-4.352 20.448-0.48 30.272l9.28 23.36c1.216 3.072-0.32 9.472-4.096 12.8-5.568 4.864-10.976 10.144-16.064 15.68-1.152 1.28-2.848 2.4-4.8 3.168-3.52 1.408-6.464 1.152-7.936 0.512l-23.232-10.016c-9.728-4.192-20.448-4.352-30.272-0.448s-17.536 11.392-21.728 21.088l-16.32 37.76c-8.64 20.032 0.64 43.36 20.64 52l23.264 10.016c3.040 1.312 6.432 6.88 6.080 11.808-0.544 7.552-0.704 15.136-0.416 22.464 0.192 4.992-3.392 10.496-6.496 11.712l-23.36 9.28c-9.792 3.904-17.504 11.36-21.696 21.088-4.192 9.696-4.352 20.448-0.448 30.272l15.168 38.208c3.904 9.792 11.392 17.504 21.088 21.696s20.448 4.352 30.272 0.448l23.36-9.28c3.072-1.216 9.472 0.32 12.768 4.096 4.768 5.472 10.080 10.88 15.712 16.064 3.648 3.328 4.992 9.728 3.68 12.768l-10.048 23.232c-4.192 9.728-4.352 20.48-0.448 30.24 3.904 9.824 11.392 17.536 21.088 21.728l37.728 16.288c9.728 4.192 20.48 4.352 30.304 0.448 9.792-3.904 17.504-11.36 21.696-21.088l10.016-23.2c0.64-1.472 2.624-3.68 6.176-5.088 1.856-0.736 3.968-1.056 5.632-0.992 7.52 0.544 15.072 0.672 22.464 0.384 4.992 0.128 10.528 3.392 11.744 6.496l9.28 23.36c3.904 9.792 11.392 17.504 21.088 21.696 9.728 4.192 20.448 4.352 30.272 0.448l38.176-15.168c20.288-8.064 30.24-31.104 22.176-51.36l-9.28-23.36c-1.216-3.072 0.32-9.472 4.096-12.768 5.536-4.864 10.976-10.144 16.096-15.744 1.184-1.28 2.816-2.368 4.8-3.136 3.552-1.408 6.496-1.184 7.936-0.544l23.232 10.048c9.696 4.192 20.48 4.352 30.272 0.448 9.824-3.904 17.536-11.392 21.728-21.088l16.288-37.696c4.192-9.696 4.352-20.448 0.448-30.304-3.904-9.824-11.392-17.568-21.088-21.728l-23.232-10.016c-3.008-1.312-6.4-6.88-6.048-11.808 0.544-7.392 0.672-14.944 0.416-22.464-0.16-5.024 3.392-10.528 6.464-11.744l23.392-9.28c20.256-8.032 30.208-31.072 22.176-51.36l-15.168-38.208c-8.064-20.288-31.104-30.208-51.36-22.176l-23.36 9.28c-3.072 1.248-9.472-0.32-12.768-4.096-4.8-5.536-10.112-10.976-15.68-16.096-3.648-3.328-4.992-9.696-3.68-12.736l10.016-23.232c8.64-20.032-0.64-43.36-20.64-52l-37.76-16.32c-9.728-4.192-20.448-4.352-30.272-0.48-9.824 3.904-17.536 11.392-21.728 21.088l-10.016 23.232c-0.64 1.472-2.624 3.68-6.176 5.088-1.888 0.768-3.968 1.152-5.568 0.96-7.616-0.544-15.168-0.672-22.56-0.384-5.12 0-10.496-3.424-11.712-6.496l-9.28-23.36c-3.904-9.792-11.392-17.504-21.088-21.696-5.088-2.048-10.432-3.136-15.744-3.136zM536.992 185.856c3.424 0 7.040-0.704 10.528-2.080 4.096-1.632 7.648-4.032 10.272-6.976 4.672-5.056 9.696-9.952 14.88-14.496 8.224-7.232 11.776-20.128 8.096-29.376l-9.28-23.36c-2.432-6.144-2.336-12.864 0.288-18.944s7.456-10.784 13.6-13.216l38.176-15.168c6.144-2.432 12.864-2.336 18.944 0.288s10.784 7.456 13.216 13.568l9.28 23.36c3.68 9.28 15.168 16.48 26.016 15.84 6.88-0.256 13.888-0.16 20.896 0.352 3.904 0.352 8.16-0.384 12.16-1.984 6.688-2.656 11.904-7.392 14.304-12.96l10.016-23.232c2.624-6.080 7.456-10.784 13.6-13.216 6.112-2.432 12.864-2.336 18.944 0.288l37.76 16.32c12.512 5.408 18.336 20.032 12.928 32.544l-10.016 23.2c-3.968 9.184-0.768 22.144 7.264 29.536 5.184 4.736 10.080 9.76 14.528 14.912 7.232 8.224 20.128 11.776 29.376 8.128l23.36-9.28c12.704-5.056 27.104 1.184 32.128 13.888l15.168 38.176c5.024 12.704-1.216 27.136-13.888 32.16l-23.36 9.28c-9.248 3.68-16.192 15.104-15.808 26.016 0.256 7.008 0.128 14.016-0.384 20.864-0.8 10.88 5.76 22.496 14.912 26.496l23.264 10.048c6.048 2.624 10.752 7.424 13.184 13.6 2.432 6.144 2.336 12.896-0.256 18.944l-16.288 37.696c-2.624 6.080-7.456 10.752-13.6 13.184s-12.864 2.336-18.976-0.256l-23.2-10.048c-5.536-2.4-12.608-2.272-19.264 0.384-4.032 1.6-7.552 3.968-10.24 6.88-4.768 5.184-9.792 10.112-14.944 14.592-8.224 7.2-11.808 20.096-8.128 29.376l9.28 23.36c5.024 12.672-1.184 27.104-13.888 32.128l-38.176 15.168c-6.144 2.432-12.864 2.336-18.944-0.288s-10.784-7.456-13.216-13.6l-9.28-23.36c-3.68-9.28-15.488-16.448-26.048-15.808-6.88 0.224-13.92 0.128-20.896-0.352-3.904-0.32-8.224 0.416-12.16 1.984-6.688 2.656-11.904 7.392-14.304 12.992l-10.016 23.168c-2.624 6.080-7.456 10.784-13.568 13.216-6.144 2.432-12.864 2.336-18.976-0.288l-37.728-16.288c-6.080-2.624-10.784-7.456-13.216-13.632-2.432-6.112-2.336-12.832 0.288-18.944l10.016-23.232c3.968-9.184 0.768-22.144-7.264-29.536-5.248-4.8-10.144-9.824-14.592-14.912-7.2-8.224-20.128-11.776-29.376-8.128l-23.36 9.28c-12.672 5.024-27.104-1.184-32.128-13.856l-15.168-38.208c-2.432-6.144-2.336-12.864 0.288-18.944s7.456-10.752 13.568-13.184l23.36-9.28c9.28-3.68 16.224-15.104 15.808-26.048-0.256-6.816-0.128-13.824 0.384-20.832 0.8-10.88-5.76-22.496-14.976-26.464l-23.264-10.016c-12.512-5.408-18.336-20.032-12.928-32.576l16.32-37.76c2.624-6.080 7.456-10.784 13.6-13.216s12.864-2.336 18.944 0.288l23.232 10.016c2.848 1.248 5.824 1.824 8.928 1.824z" />
<glyph unicode="&#xe926;" d="M738.778 408.194c55.819-22.154 83.111-85.363 60.957-141.183s-85.363-83.111-141.183-60.957c-55.819 22.154-83.111 85.363-60.957 141.183s85.363 83.111 141.183 60.957z" />
<glyph unicode="&#xe927;" d="M698.496 190.944c-14.24 0-28.672 2.624-42.688 8.192-59.52 23.616-88.736 91.264-65.088 150.816 23.648 59.52 91.264 88.704 150.816 65.088 28.8-11.424 51.424-33.408 63.712-61.92 12.32-28.512 12.8-60.064 1.376-88.864-18.112-45.504-61.888-73.312-108.128-73.312zM661.28 212.896c51.936-20.64 110.944 4.896 131.552 56.832 9.984 25.12 9.536 52.64-1.184 77.536-10.752 24.896-30.496 44.064-55.584 54.048-51.936 20.64-110.976-4.864-131.584-56.8-20.64-51.968 4.864-111.008 56.8-131.616z" />
<glyph unicode="&#xe928;" glyph-name="konftel-event" d="M963.254-20.61h-898.169c-34.712 0-65.085 30.373-65.085 65.085v715.932c0 34.712 30.373 65.085 65.085 65.085h893.83c30.373 0 56.407-26.034 65.085-60.746v-720.271c0-30.373-26.034-65.085-60.746-65.085zM954.576 764.746h-889.491v-715.932c0 0 0-4.339 0-4.339h893.83v711.593c0 4.339 0 4.339-4.339 8.678zM208.271 903.593h86.78v-216.949h-86.78v216.949zM728.949 903.593h86.78v-216.949h-86.78v216.949zM164.881 621.559h173.559v-173.559h-173.559v173.559zM425.22 621.559h173.559v-173.559h-173.559v173.559zM685.559 621.559h173.559v-173.559h-173.559v173.559zM164.881 361.22h173.559v-173.559h-173.559v173.559zM425.22 361.22h173.559v-173.559h-173.559v173.559z" />
<glyph unicode="&#xe92b;" glyph-name="konftel-bluetooth" d="M465.371 696.247l84.48-84.48-84.443-84.443-0.037 168.923zM465.371 178.981l84.48 84.48-84.443 84.443-0.037-168.923zM375.186 437.614l-182.674 183.15 52.919 52.919 145.554-145.554v348.891l264.631-264.631-174.775-174.738 174.775-174.738-264.631-264.631v348.855l-145.554-145.554-52.919 52.919 182.674 183.113zM424.119-73.362c223.122 0 376.905 105.984 376.905 510.976s-153.783 510.976-376.905 510.976-377.015-105.984-377.015-510.976c0-404.992 153.856-510.976 377.015-510.976v0zM990.391 872.338c0-42.496-36.169-78.299-78.665-78.299-44.361 0-78.299 34.304-78.299 78.299 0 43.264 35.035 78.299 78.299 78.299 44.361 0 78.665-33.938 78.665-78.299zM850.944 873.070c0-33.573 27.209-62.647 60.782-62.647 33.938 0 60.782 27.611 60.782 61.147 0 33.938-26.843 62.647-60.782 62.647-33.573 0-60.782-27.575-60.782-61.147zM926.245 829.806l-23.881 38.034h-1.134v-38.034h-14.921v86.162h26.112c20.517 0 28.709-8.594 28.709-21.614 0-14.555-8.96-23.479-22.747-24.978 1.865-2.231 5.23-7.095 8.594-12.288l17.883-27.246h-18.615zM910.958 904.046h-9.691v-26.478h5.961c13.787 0 18.286 7.826 18.286 14.921 0 8.192-3.73 11.557-14.555 11.557z" />
<glyph unicode="&#xe92c;" glyph-name="konftel-deskphone" d="M965.193 741.23h-498.249v-441.527c0-69.339-56.283-125.623-125.33-125.623h-139.154c-69.157 0-125.33 56.283-125.33 125.623v441.527h-18.395c-32.512 0-58.734-26.368-58.734-58.843v-583.497c0-58.039 45.166-92.782 92.745-92.782h838.4c63.707 0 92.855 30.903 92.855 92.782v583.497c0 32.475-26.295 58.843-58.807 58.843zM583.534 646.437h324.096v-107.849h-324.096v107.849zM643.877 157.257c0-8.777-7.058-15.872-15.799-15.872h-60.306c-8.704 0-15.835 7.095-15.835 15.872v40.411c0 8.777 7.095 15.835 15.835 15.835h60.306c8.741 0 15.799-7.058 15.799-15.835v-40.411zM643.877 274.578c0-8.741-7.058-15.835-15.799-15.835h-60.306c-8.704 0-15.835 7.095-15.835 15.835v40.411c0 8.814 7.095 15.835 15.835 15.835h60.306c8.741 0 15.799-7.022 15.799-15.835v-40.411zM643.877 391.68c0-8.704-7.058-15.799-15.799-15.799h-60.306c-8.704 0-15.835 7.095-15.835 15.799v40.485c0 8.704 7.095 15.835 15.835 15.835h60.306c8.741 0 15.799-7.131 15.799-15.835v-40.485zM780.837 157.257c0-8.777-7.022-15.872-15.799-15.872h-60.27c-8.777 0-15.799 7.095-15.799 15.872v40.411c0 8.777 7.022 15.835 15.799 15.835h60.27c8.777 0 15.799-7.058 15.799-15.835v-40.411zM780.837 274.578c0-8.741-7.022-15.835-15.799-15.835h-60.27c-8.777 0-15.799 7.095-15.799 15.835v40.411c0 8.814 7.022 15.835 15.799 15.835h60.27c8.777 0 15.799-7.022 15.799-15.835v-40.411zM780.837 391.68c0-8.704-7.022-15.799-15.799-15.799h-60.27c-8.777 0-15.799 7.095-15.799 15.799v40.485c0 8.704 7.022 15.835 15.799 15.835h60.27c8.777 0 15.799-7.131 15.799-15.835v-40.485zM917.76 157.257c0-8.777-6.985-15.872-15.726-15.872h-60.27c-8.777 0-15.872 7.095-15.872 15.872v40.411c0 8.777 7.095 15.835 15.872 15.835h60.27c8.741 0 15.726-7.058 15.726-15.835v-40.411zM917.76 274.578c0-8.741-6.985-15.835-15.726-15.835h-60.27c-8.777 0-15.872 7.095-15.872 15.835v40.411c0 8.814 7.095 15.835 15.872 15.835h60.27c8.741 0 15.726-7.022 15.726-15.835v-40.411zM917.76 391.68c0-8.704-6.985-15.799-15.726-15.799h-60.27c-8.777 0-15.872 7.095-15.872 15.799v40.485c0 8.704 7.095 15.835 15.872 15.835h60.27c8.741 0 15.726-7.131 15.726-15.835v-40.485zM128.987 816.384c0 40.667 33.024 73.509 73.582 73.509h139.008c40.594 0 73.509-32.841 73.509-73.509v-516.864c0-40.558-32.878-73.545-73.509-73.545h-138.971c-40.594 0-73.582 32.987-73.582 73.545v516.864z" />
<glyph unicode="&#xe92d;" glyph-name="konftel-expansion-microphones" d="M523.090 259.466c66.542 0 121.993 55.451 121.993 121.993v454.7c0 66.542-55.451 121.993-121.993 121.993s-121.993-55.451-121.993-121.993v-454.7c3.697-66.542 59.148-121.993 121.993-121.993zM744.895 26.57h-188.534v96.116c7.394 0 14.787 3.697 22.181 3.697h7.394c51.755 11.090 92.419 29.574 121.993 70.238 0 0 0 0 0 0s0 0 0 0 0 3.697 3.697 3.697v0c25.877 33.271 40.664 77.632 48.058 118.296 14.787 77.632 0 144.173 0 151.567-3.697 22.181-25.877 40.664-51.755 36.968-22.181-3.697-40.664-25.877-36.968-51.755 0-3.697 22.181-129.386-33.271-199.625-25.877-29.574-62.845-44.361-118.296-44.361-51.755 0-92.419 14.787-118.296 44.361-59.148 70.238-36.968 195.928-33.271 199.625 3.697 22.181-11.090 48.058-36.968 51.755-22.181 3.697-48.058-11.090-51.755-36.968 0-3.697-14.787-73.935 0-151.567 7.394-40.664 22.181-85.025 51.755-121.993 33.271-36.968 73.935-62.845 129.386-73.935v-99.812h-181.141c-25.877 0-44.361-18.484-44.361-44.361s18.484-44.361 44.361-44.361h465.791c25.877 0 44.361 18.484 44.361 44.361 0 29.574-18.484 48.058-44.361 48.058z" />
<glyph unicode="&#xe92e;" glyph-name="konftel-headset" d="M936.851 487.943c0 148.879-39.943 268.709-123.461 348.596-130.723 127.092-308.652 119.83-319.546 119.83-141.617-10.894-250.553-61.73-319.546-152.511-98.043-116.199-94.411-268.709-90.78-319.546-21.787-18.156-32.681-47.206-25.418-76.255l54.468-225.135c10.894-39.943 50.837-61.73 90.78-54.468v0c39.943 10.894 61.73 50.837 54.468 90.78l-58.099 225.135c-7.262 29.050-29.050 47.206-58.099 54.468-3.631 50.837 0 174.298 76.255 268.709 61.73 76.255 152.511 119.83 275.972 130.723 0 0 163.404 3.631 272.34-101.674 72.624-68.993 108.936-170.667 108.936-297.759-25.418-7.262-43.574-25.418-50.837-50.837l-58.099-225.135c-7.262-32.681 7.262-68.993 36.312-83.518-18.156-36.312-58.099-108.936-137.986-130.723-7.262 18.156-25.418 32.681-47.206 32.681h-108.936c-29.050 0-50.837-21.787-50.837-50.837s21.787-50.837 50.837-50.837h108.936c25.418 0 43.574 18.156 50.837 39.943 98.043 25.418 145.248 108.936 163.404 152.511 36.312-3.631 68.993 21.787 76.255 54.468l58.099 225.135c10.894 29.050-3.631 61.73-29.050 76.255z" />
<glyph unicode="&#xe92f;" glyph-name="konftel-mobile-cable" d="M690.688 960h-357.413c-43.557 0-79.214-33.902-79.214-75.374v-873.253c0-41.472 35.657-75.374 79.25-75.374h357.413c43.593 0 79.25 33.938 79.25 75.374v873.253c-0.037 41.472-35.694 75.374-79.287 75.374zM474.624 900.901h74.789c1.975 0 3.547-1.755 3.547-3.913s-1.573-3.95-3.547-3.95h-74.789c-1.938 0-3.547 1.755-3.547 3.95 0 2.158 1.573 3.913 3.547 3.913zM425.582 908.069c4.791 0 8.704-3.694 8.704-8.265s-3.913-8.265-8.704-8.265c-4.791 0-8.704 3.694-8.704 8.265s3.877 8.265 8.704 8.265zM512-35.767c-21.321 0-38.619 16.457-38.619 36.754s17.298 36.754 38.619 36.754c21.321 0 38.619-16.457 38.619-36.754s-17.262-36.754-38.619-36.754zM729.929 75.227h-435.858v763.282h435.858v-763.282z" />
<glyph unicode="&#xe930;" glyph-name="konftel-NFC2" d="M1021.298 874.758c-2.665 41.763-34.717 73.414-77.247 75.969-46.911 2.774-198.776 5.147-242.474 5.147 78.014-53.883 88.674-155.225 96.048-343.56 4.308-111.6 0.402-502.545 0.11-519.119l-2.044-106.635-410.111 410.111v128.356l326.074-326.147c0.84 64.543 1.716 148.726 1.716 225.682 0 74.984-1.095 142.849-3.249 178.588-12.266 205.238-31.395 301.395-138.541 339.106-32.746 11.536-63.302 14.274-114.228 14.931-42.092 0.548-335.127 0.329-377.438-1.971-44.976-2.409-75.166-35.046-77.211-77.101-2.044-41.581-2.701-816.608 0-858.809 2.665-41.8 34.717-73.414 77.211-75.933 46.947-2.847 198.813-3.176 242.474-3.176-78.014 53.847-88.71 155.188-96.011 343.524-4.308 111.6-0.402 502.545-0.073 519.119l2.008 106.635 410.111-410.184v-128.319l-326.11 326.11c-0.84-64.507-1.679-148.69-1.679-225.645 0-74.984 1.095-142.849 3.213-178.552 12.266-205.275 31.395-301.432 138.541-339.106 32.783-11.536 63.338-14.31 114.265-15.004 42.055-0.511 335.127-0.256 377.401 2.008 44.976 2.409 75.166 35.046 77.247 77.138 2.008 41.581 2.701 814.637 0 856.838v0z" />
<glyph unicode="&#xe931;" glyph-name="konftel-PA-connection" d="M755.228 482.668c0-14.701-11.958-26.696-26.696-26.696h-164.383c-14.701 0-26.66 11.958-26.66 26.696v53.356c0 14.701 11.958 26.696 26.66 26.696h164.383c14.701 0 26.696-11.958 26.696-26.696v-53.356zM806.243 346.042v53.356c0 14.701 11.958 26.696 26.696 26.696h164.383c14.701 0 26.696-11.958 26.696-26.696v-53.356c0-14.701-11.958-26.696-26.696-26.696h-164.383c-14.738 0-26.696 11.995-26.696 26.696zM915.112 820.357c14.153 0 25.599-11.483 25.599-25.599v-334.47h-51.235v334.434c0 14.153 11.483 25.636 25.636 25.636zM646.359 820.357c14.153 0 25.599-11.483 25.599-25.599v-197.844h-51.235v197.844c0.037 14.116 11.483 25.599 25.636 25.599zM0.018 585.175v53.356c0 14.701 11.958 26.696 26.696 26.696h164.383c14.701 0 26.696-11.958 26.696-26.696v-53.356c0-14.701-11.958-26.696-26.696-26.696h-164.383c-14.738 0-26.696 11.958-26.696 26.696zM486.511 262.809c0-14.701-11.958-26.696-26.696-26.696h-164.383c-14.701 0-26.696 11.958-26.696 26.696v53.356c0 14.701 11.958 26.696 26.696 26.696h164.383c14.701 0 26.696-11.958 26.696-26.696v-53.356zM377.641 820.357c14.153 0 25.599-11.483 25.599-25.599v-417.704h-51.235v417.667c0 14.153 11.483 25.636 25.636 25.636zM108.888 820.357c14.153 0 25.599-11.483 25.599-25.599v-95.338h-51.198v95.302c0 14.153 11.446 25.636 25.599 25.636zM108.888 75.643c-14.153 0-25.599 11.483-25.599 25.599v423.080h51.235v-423.043c0-14.153-11.483-25.636-25.636-25.636zM377.641 75.643c-14.153 0-25.599 11.483-25.599 25.599v100.714h51.235v-100.714c-0.037-14.116-11.483-25.599-25.636-25.599zM646.359 75.643c-14.153 0-25.599 11.483-25.599 25.599v320.574h51.235v-320.574c0-14.116-11.483-25.599-25.636-25.599zM915.112 75.643c-14.153 0-25.599 11.483-25.599 25.599v183.911h51.235v-183.911c-0.037-14.116-11.483-25.599-25.636-25.599zM83.288 524.322v-423.043c0-14.153 11.483-25.599 25.599-25.599 14.153 0 25.599 11.483 25.599 25.599v423.043h-51.198zM134.523 699.383v95.338c0 14.153-11.483 25.599-25.599 25.599-14.153 0-25.599-11.483-25.599-25.599v-95.338h51.198zM191.061 558.478c14.701 0 26.696 11.958 26.696 26.696v53.356c0 14.701-11.958 26.696-26.696 26.696h-164.346c-14.738 0-26.696-11.995-26.696-26.696v-53.356c0-14.701 11.958-26.696 26.696-26.696h164.346zM403.24 377.017v417.704c0 14.153-11.483 25.599-25.599 25.599s-25.599-11.483-25.599-25.599v-417.704h51.198zM352.006 201.993v-100.714c0-14.153 11.483-25.599 25.599-25.599s25.599 11.483 25.599 25.599v100.714h-51.198zM459.814 342.861h-164.383c-14.701 0-26.696-11.958-26.696-26.696v-53.356c0-14.701 11.958-26.696 26.696-26.696h164.383c14.701 0 26.696 11.958 26.696 26.696v53.356c0 14.738-11.995 26.696-26.696 26.696zM620.76 421.852v-320.574c0-14.153 11.483-25.599 25.599-25.599 14.153 0 25.599 11.483 25.599 25.599v320.574h-51.198zM671.994 596.877v197.844c0 14.153-11.483 25.599-25.599 25.599-14.153 0-25.599-11.483-25.599-25.599v-197.844h51.198zM728.568 562.72h-164.383c-14.701 0-26.66-11.958-26.66-26.696v-53.356c0-14.701 11.958-26.696 26.66-26.696h164.383c14.701 0 26.696 11.958 26.696 26.696v53.356c-0.037 14.738-11.995 26.696-26.696 26.696zM889.477 285.19v-183.911c0-14.153 11.483-25.599 25.599-25.599 14.153 0 25.599 11.483 25.599 25.599v183.911h-51.198zM940.712 460.251v334.47c0 14.153-11.483 25.599-25.599 25.599-14.153 0-25.599-11.483-25.599-25.599v-334.47h51.198zM997.286 319.346c14.701 0 26.696 11.958 26.696 26.696v53.356c0 14.701-11.958 26.696-26.696 26.696h-164.383c-14.701 0-26.696-11.958-26.696-26.696v-53.356c0-14.701 11.958-26.696 26.696-26.696h164.383z" />
<glyph unicode="&#xe942;" glyph-name="phone" d="M704 320c-64-64-64-128-128-128s-128 64-192 128-128 128-128 192 64 64 128 128-128 256-192 256-192-192-192-192c0-128 131.5-387.5 256-512s384-256 512-256c0 0 192 128 192 192s-192 256-256 192z" />
<glyph unicode="&#xe94b;" glyph-name="konftel-power-over-ethernet" d="M891.246 594.286h-20.809v208.311h-95.122v88.686h-526.629v-88.686h-95.122v-208.311h-20.809c0 0-132.754 0-132.754-76.471v-436.663c0 0 0-76.434 132.754-76.434h758.491c0 0 132.754 0 132.754 76.434v436.663c0 0 0 76.471-132.754 76.471zM188.050 44.069h-69.12v294.619h69.12v-294.619zM290.487 44.069h-69.083v294.619h69.083v-294.619zM392.923 44.069h-69.12v294.619h69.12v-294.619zM495.36 44.069h-69.12v294.619h69.12v-294.619zM597.76 44.069h-69.12v294.619h69.12v-294.619zM460.215 441.966l37.632 165.632-81.847 18.981 160.695 182.528-38.327-165.303 81.737-18.578-159.89-183.259zM700.197 44.069h-69.12v294.619h69.12v-294.619zM802.633 44.069h-69.12v294.619h69.12v-294.619zM905.070 44.069h-69.12v294.619h69.12v-294.619z" />
<glyph unicode="&#xe94c;" glyph-name="konftel-streaming" d="M307.887 829.359v-638.401c0-3.107-2.961-5.191-5.885-4.277-16.303 5.081-33.921 7.859-52.308 7.859-83.999 0-152.061-57.864-152.061-129.142s68.062-129.142 152.061-129.142c84.109 0 152.171 57.864 152.171 129.142 0 5.264-0.475 10.381-1.206 15.462v503.227c0 2.157 1.535 4.057 3.655 4.496l422.554 87.399c2.851 0.585 5.52-1.572 5.52-4.496l-0.475-397.516c0-2.961-2.668-5.227-5.556-4.642-14.987 2.997-38.673 5.41-52.161 5.41-83.999 0-152.061-57.864-152.061-129.142s68.062-129.142 152.061-129.142c81.55 0 147.821 54.428 151.805 122.672h0.402v816.049c0 2.888-2.668 5.081-5.52 4.496l-609.341-125.816c-2.12-0.475-3.655-2.339-3.655-4.496z" />
<glyph unicode="&#xe94d;" glyph-name="konftel-analogue" d="M1020.369 509.73c0 18.156 3.631 90.78-18.156 123.461-25.418 39.943-98.043 98.043-192.454 127.092-83.518 29.050-210.61 36.312-279.603 36.312-3.631 0-10.894 0-14.525 0 0 0-3.631 0-3.631 0s-3.631 0-3.631 0-10.894 0-14.525 0c-68.993 0-196.085-7.262-279.603-36.312-94.411-29.050-167.035-90.78-192.454-127.092-21.787-29.050-18.156-101.674-18.156-119.83 0-3.631 0-3.631 0-7.262 0-21.787 18.156-36.312 36.312-36.312h105.305c21.787 0 36.312 18.156 36.312 36.312 0 0 0 0 0 3.631 0 0 0 0 0 0s18.156 170.667 98.043 177.929c18.156 0 47.206 3.631 79.887 3.631 0 0 68.993 0 148.879 0s148.879 0 148.879 0c32.681 0 61.73 0 79.887-3.631 79.887-7.262 98.043-177.929 98.043-177.929s0 0 0 0 0-3.631 0-3.631c0-21.787 18.156-36.312 36.312-36.312h112.567c21.787 0 36.312 18.156 36.312 36.312 0 0 0 3.631 0 3.631zM893.277 328.17c-3.631 7.262-36.312 79.887-68.993 152.511-39.943 83.518-58.099 141.617-65.362 156.142s-10.894 14.525-25.418 14.525-432.113 0-432.113 0h-21.787c0 0-10.894-3.631-14.525-10.894-10.894-25.418-36.312-94.411-65.362-159.773-32.681-72.624-68.993-145.248-68.993-152.511-3.631-3.631-3.631-29.050-3.631-58.099v-7.262c0-10.894 0-18.156 0-29.050 0-50.837 36.312-94.411 83.518-116.199 25.418-14.525 58.099-21.787 90.78-21.787h424.851c32.681 0 61.73 7.262 90.78 21.787 50.837 25.418 83.518 68.993 83.518 116.199 0 10.894 0 18.156 0 29.050v7.262c-3.631 29.050-3.631 54.468-7.262 58.099zM399.433 277.333h-18.156c-14.525 0-29.050 14.525-29.050 29.050s14.525 29.050 29.050 29.050h18.156c14.525 0 29.050-14.525 29.050-29.050s-14.525-29.050-29.050-29.050zM399.433 364.482h-18.156c-14.525 0-29.050 14.525-29.050 29.050s14.525 29.050 29.050 29.050h18.156c14.525 0 29.050-14.525 29.050-29.050 0-18.156-14.525-29.050-29.050-29.050zM399.433 448h-18.156c-14.525 0-29.050 14.525-29.050 29.050s14.525 29.050 29.050 29.050h18.156c14.525 0 29.050-14.525 29.050-29.050s-14.525-29.050-29.050-29.050zM399.433 535.149h-18.156c-14.525 0-29.050 14.525-29.050 29.050s14.525 29.050 29.050 29.050h18.156c14.525 0 29.050-14.525 29.050-29.050s-14.525-29.050-29.050-29.050zM526.525 277.333h-18.156c-14.525 0-29.050 14.525-29.050 29.050s14.525 29.050 29.050 29.050h18.156c14.525 0 29.050-14.525 29.050-29.050s-14.525-29.050-29.050-29.050zM526.525 364.482h-18.156c-14.525 0-29.050 14.525-29.050 29.050s14.525 29.050 29.050 29.050h18.156c14.525 0 29.050-14.525 29.050-29.050 0-18.156-14.525-29.050-29.050-29.050zM526.525 448h-18.156c-14.525 0-29.050 14.525-29.050 29.050s14.525 29.050 29.050 29.050h18.156c14.525 0 29.050-14.525 29.050-29.050s-14.525-29.050-29.050-29.050zM526.525 535.149h-18.156c-14.525 0-29.050 14.525-29.050 29.050s14.525 29.050 29.050 29.050h18.156c14.525 0 29.050-14.525 29.050-29.050s-14.525-29.050-29.050-29.050zM649.986 277.333h-18.156c-14.525 0-29.050 14.525-29.050 29.050s14.525 29.050 29.050 29.050h18.156c14.525 0 29.050-14.525 29.050-29.050s-14.525-29.050-29.050-29.050zM649.986 364.482h-18.156c-14.525 0-29.050 14.525-29.050 29.050s14.525 29.050 29.050 29.050h18.156c14.525 0 29.050-14.525 29.050-29.050 0-18.156-14.525-29.050-29.050-29.050zM649.986 448h-18.156c-14.525 0-29.050 14.525-29.050 29.050s14.525 29.050 29.050 29.050h18.156c14.525 0 29.050-14.525 29.050-29.050s-14.525-29.050-29.050-29.050zM649.986 535.149h-18.156c-14.525 0-29.050 14.525-29.050 29.050s14.525 29.050 29.050 29.050h18.156c14.525 0 29.050-14.525 29.050-29.050s-14.525-29.050-29.050-29.050z" />
<glyph unicode="&#xe955;" glyph-name="konftel-GSM-3G" d="M575.216 420.615c-22.595 46.471-31.407 161.934-31.407 161.934h-67.786c0 0-8.775-115.5-31.37-161.934s-153.159-229.757-153.159-229.757h113.087c0 0 52.65 56.489 57.659 62.777 2.303 2.852 24.277 4.643 47.714 5.777 23.436-1.133 45.41-2.925 47.714-5.777 5.009-6.289 57.659-62.777 57.659-62.777h113.087c-0.037 0-130.6 183.323-153.196 229.757zM711.484 391.987c-16.526 0.256-29.762 13.857-29.469 30.42 0 0 114.221 108.078 116.451 252.243 2.194 144.165-108.663 255.753-108.663 255.753 0.256 16.526 13.821 29.725 30.383 29.469v0c16.526-0.256 122.886-128.005 125.482-285.917 2.596-157.949-117.621-282.224-134.184-281.968v0zM652.509 474.288c-11.005 0.183-33.016 23.985-32.833 34.99 0 0 82.923 70.711 84.349 166.834 1.499 96.086-78.938 185.115-78.938 185.115 0.183 11.042 19.597 36.416 30.603 36.233v0c11.005-0.146 95.354-113.307 97.036-218.606 1.718-105.299-89.212-204.749-100.217-204.566v0zM285.314 391.987c16.526 0.256 29.762 13.857 29.506 30.42 0 0-114.221 108.078-116.451 252.243s108.627 255.753 108.627 255.753c-0.219 16.526-13.821 29.725-30.347 29.469v0c-16.563-0.256-122.886-128.005-125.482-285.917-2.559-157.949 117.621-282.224 134.147-281.968v0zM344.325 474.288c11.042 0.183 33.016 23.985 32.833 34.99 0 0-82.887 70.711-84.349 166.834-1.499 96.086 78.975 185.115 78.975 185.115-0.183 11.042-19.597 36.416-30.639 36.233v0c-11.042-0.146-95.354-113.307-97.073-218.606-1.682-105.299 89.249-204.749 100.254-204.566v0zM591.23 692.784c0-44.909-36.406-81.315-81.315-81.315s-81.315 36.406-81.315 81.315c0 44.909 36.406 81.315 81.315 81.315s81.315-36.406 81.315-81.315zM216.577 76.82c16.416 0 34.442-6.837 47.75-18.391 1.755-1.353 1.974-3.729 0.402-5.265l-15.466-16.453c-1.572-1.353-3.729-1.353-5.302-0.219-7.422 6.837-16.051 9.397-25.63 9.397-21.352 0-38.537-17.989-38.537-39.524 0-21.316 17.404-38.939 38.756-38.939 5.667 0 11.554 0.768 17.404 3.144v11.334h-12.358c-2.157 0-3.693 1.572-3.693 3.51v19.378c0 2.157 1.572 3.729 3.693 3.729h39.341c1.938 0 3.51-1.755 3.51-3.729l0.219-52.65c0-1.755-0.804-2.559-1.572-3.144 0 0-20.146-12.724-48.518-12.724-38.939 0-70.236 30.932-70.236 70.053-0.037 39.158 31.297 70.492 70.236 70.492zM287.873-48.808c-1.572 1.572-2.157 3.327-0.768 5.887l8.994 15.831c1.572 2.559 4.68 2.559 6.654 1.17 5.484-3.729 15.466-10.749 27.787-10.749 7.824 0 13.491 4.863 13.491 11.736 0 8.227-7.239 13.491-20.146 19.744-18.976 9.214-37.952 19.744-37.952 43.253 0 19.378 15.064 38.939 45.191 38.939 20.365 0 36.014-10.384 41.864-14.661 2.34-1.389 1.974-4.899 1.17-6.252l-9.982-15.064c-1.389-2.157-4.68-3.729-8.592-1.389-4.497 3.144-16.051 10.566-26.435 10.566-8.227 0-11.919-5.082-11.919-10.749 0-6.472 7.642-11.554 21.316-18.208 17.221-8.409 39.524-18.025 39.524-44.606 0-20.146-17.404-40.511-46.178-40.511-25.447 0-39.524 10.566-44.021 15.064zM416.097 73.895c0.183 1.755 1.938 3.144 3.51 3.144h3.144c0.987 0 2.742-0.804 3.327-1.938l45.41-84.532h0.402l45.41 84.532c0.585 1.17 2.34 1.938 3.327 1.938h3.144c1.572 0 3.327-1.389 3.51-3.144l22.084-131.478c0.402-2.559-1.353-4.314-3.693-4.314h-23.071c-1.755 0-3.51 1.572-3.729 3.144l-8.812 60.474h-0.402l-32.869-63.399c-0.622-1.207-2.413-2.194-3.364-2.194h-3.51c-1.17 0-2.742 0.987-3.327 2.157l-33.052 63.399h-0.402l-8.629-60.474c-0.183-1.572-1.755-3.144-3.693-3.144h-23.107c-2.34 0-4.095 1.755-3.693 4.314l22.084 131.515zM605.782 72.505c0.402 1.389 1.974 2.559 3.51 2.559h19.195c2.742 0 4.314-2.157 3.51-4.899l-38.171-129.54c-0.402-1.353-2.157-2.559-3.51-2.559h-19.378c-2.559 0-4.314 2.157-3.51 4.899l38.354 129.54zM650.827-41.386l11.736 13.126c1.389 1.353 3.51 1.755 5.119 0.402 4.863-4.095 11.736-9.214 22.084-9.214 9.982 0 17.404 6.069 17.404 16.051 0 9.945-8.994 16.416-23.875 16.416h-11.371c-1.938 0-3.729 1.755-3.729 3.729v16.819c0 2.157 1.755 3.729 3.729 3.729h11.371c14.076 0 21.499 6.654 21.499 15.246 0 8.812-5.85 15.283-16.051 15.283-8.994 0-14.479-4.68-17.623-8.044-1.389-1.755-3.729-1.755-5.484-0.402l-12.321 12.139c-1.572 1.353-1.353 3.912 0 5.302 7.020 7.239 19.159 17.806 38.537 17.806 23.473 0 43.619-14.296 43.619-36.964 0-15.466-11.736-26.8-20.731-30.932v-0.804c10.969-3.729 24.277-13.894 24.277-32.467 0-21.901-19.195-39.707-46.946-39.707-25.447 0-37.184 12.102-41.498 17.404-1.133 1.572-0.914 3.729 0.256 5.082zM827.606 76.82c16.416 0 34.442-6.837 47.75-18.391 1.755-1.353 1.938-3.729 0.402-5.265l-15.466-16.453c-1.572-1.353-3.729-1.353-5.302-0.219-7.422 6.837-16.051 9.397-25.63 9.397-21.316 0-38.537-17.989-38.537-39.524 0-21.316 17.404-38.939 38.756-38.939 5.667 0 11.554 0.768 17.404 3.144v11.334h-12.321c-2.157 0-3.729 1.572-3.729 3.51v19.378c0 2.157 1.572 3.729 3.729 3.729h39.304c1.938 0 3.51-1.755 3.51-3.729l0.219-52.65c0-1.755-0.804-2.559-1.572-3.144 0 0-20.182-12.724-48.518-12.724-38.939 0-70.273 30.932-70.273 70.053 0 39.158 31.297 70.492 70.273 70.492z" />
<glyph unicode="&#xe956;" glyph-name="konftel-SIP" d="M659.273 397.824h-31.817v-48.238h31.817c13.568 0 23.003 10.715 23.003 24.905 0 13.239-9.435 23.333-23.003 23.333zM891.246 891.282h-758.491c0 0-132.754 0-132.754-76.434v-436.663c0 0 0-76.471 132.754-76.471h20.809v-208.311h95.122v-88.686h526.629v88.686h95.122v208.311h20.809c0 0 132.754 0 132.754 76.471v436.663c0 0 0 76.434-132.754 76.434zM631.077 851.931h69.12v-294.619h-69.12v294.619zM426.24 851.931h69.12v-294.619h-69.12v294.619zM323.803 851.931h69.12v-294.619h-69.12v294.619zM188.087 557.312h-69.12v294.619h69.12v-294.619zM290.487 557.312h-69.12v294.619h69.12v-294.619zM367.25 220.416c-40.96 0-63.634 17.006-70.912 24.247-2.523 2.523-3.474 5.376-1.243 9.472l14.482 25.527c2.523 4.096 7.57 4.096 10.715 1.902 8.814-5.998 24.905-17.335 44.727-17.335 12.617 0 21.76 7.863 21.76 18.907 0 13.239-11.666 21.76-32.475 31.817-30.574 14.811-61.147 31.817-61.147 69.632 0 31.195 24.247 62.72 72.814 62.72 32.768 0 58.002-16.713 67.438-23.625 3.767-2.194 3.145-7.863 1.902-10.094l-16.091-24.247c-2.194-3.474-7.57-5.998-13.861-2.231-7.241 5.047-25.856 17.042-42.533 17.042-13.239 0-19.237-8.192-19.237-17.335 0-10.386 12.288-18.578 34.341-29.33 27.721-13.568 63.671-29.001 63.671-71.863 0.037-32.439-28.014-65.207-74.35-65.207zM528.53 229.559c0-3.145-2.853-5.998-5.998-5.998h-37.815c-3.145 0-5.998 2.853-5.998 5.998v208.603c0 3.145 2.853 5.998 5.998 5.998h37.815c3.145 0 5.998-2.853 5.998-5.998v-208.603zM528.677 851.931h69.12v-294.619h-69.12v294.619zM660.517 303.579h-33.097v-74.057c0-3.145-2.853-5.998-5.998-5.998h-37.193c-3.474 0-5.998 2.853-5.998 5.998v208.603c0 3.145 2.523 5.998 5.998 5.998h75.959c41.582 0 70.583-31.525 70.583-69.632 0.037-39.058-28.965-70.912-70.254-70.912zM802.597 557.312h-69.083v294.619h69.083v-294.619zM905.070 557.312h-69.12v294.619h69.12v-294.619z" />
<glyph unicode="&#xe957;" glyph-name="konftel-USB" d="M788.856 700.535h-133.856v-133.856h37.012v-44.948l-141.463-101.306v313.648h70.915l-100.465 225.946-100.392-225.946h78.558v-428.559l-141.463 108.402v76.766c28.051 13.898 47.508 42.571 47.508 75.962 0 46.923-38.036 85.068-85.068 85.068-46.923 0-84.958-38.145-84.958-85.068 0-37.524 24.467-69.049 58.224-80.35v-87.080c0-9.18 6.803-17.884 14.117-23.407l191.678-141.866v-43.046c-60.564-10.387-106.646-62.978-106.646-126.432 0-70.951 57.492-128.443 128.517-128.443 70.951 0 128.443 57.492 128.443 128.443 0 60.784-42.242 111.583-98.966 124.896v161.176l190.873 131.991c7.79 5.522 14.922 14.41 14.922 23.992v60.162h32.55v133.856z" />
<glyph unicode="&#xe958;" glyph-name="konftel-wireless" d="M66.073 534.953c-14.92 0-29.839 5.527-41.435 16.69-23.806 22.903-24.565 60.762-1.662 84.569 123.331 128.28 302.872 201.758 492.89 201.758 0.795 0 1.553 0 2.312 0 187.85-0.578 363.924-72.973 483.136-198.543 22.759-23.951 21.747-61.81-2.204-84.569s-61.81-21.747-84.569 2.204c-96.815 102.017-241.424 160.792-396.761 161.262-0.65 0-1.301 0-1.951 0-157.65 0-305.762-60.076-406.623-165.019-11.741-12.174-27.419-18.352-43.133-18.352zM204.359 388.683c-15.534 0-31.068 6.033-42.808 18.026-23.084 23.626-22.614 61.521 1.012 84.605 183.335 179 514.312 179.867 694.431 1.77 23.481-23.228 23.698-61.124 0.47-84.605s-61.124-23.698-84.605-0.47c-133.915 132.398-389.897 131.278-526.703-2.312-11.632-11.343-26.733-17.015-41.797-17.015zM343.477 226.192c-13.8 0-27.672 4.769-38.979 14.45-25.035 21.531-27.889 59.317-6.358 84.352 54.151 63.002 133.229 99.091 216.967 99.091 0.325 0 0.614 0 0.939 0 82.907-0.253 160.54-35.872 213.029-97.682 21.386-25.179 18.279-62.93-6.9-84.316s-62.93-18.279-84.316 6.9c-29.803 35.114-74.309 55.307-122.175 55.452-0.181 0-0.361 0-0.542 0-48.877 0-94.864-20.916-126.257-57.439-11.849-13.728-28.575-20.808-45.409-20.808zM589.38 134.543c0-42.276-34.272-76.549-76.549-76.549s-76.549 34.272-76.549 76.549c0 42.276 34.272 76.549 76.549 76.549s76.549-34.272 76.549-76.549z" />
<glyph unicode="&#xe959;" glyph-name="konftel-expansion-microphones2" d="M523.090 259.466c66.542 0 121.993 55.451 121.993 121.993v454.7c0 66.542-55.451 121.993-121.993 121.993s-121.993-55.451-121.993-121.993v-454.7c3.697-66.542 59.148-121.993 121.993-121.993zM744.895 26.57h-188.534v96.116c7.394 0 14.787 3.697 22.181 3.697h7.394c51.755 11.090 92.419 29.574 121.993 70.238 0 0 0 0 0 0s0 0 0 0 0 3.697 3.697 3.697v0c25.877 33.271 40.664 77.632 48.058 118.296 14.787 77.632 0 144.173 0 151.567-3.697 22.181-25.877 40.664-51.755 36.968-22.181-3.697-40.664-25.877-36.968-51.755 0-3.697 22.181-129.386-33.271-199.625-25.877-29.574-62.845-44.361-118.296-44.361-51.755 0-92.419 14.787-118.296 44.361-59.148 70.238-36.968 195.928-33.271 199.625 3.697 22.181-11.090 48.058-36.968 51.755-22.181 3.697-48.058-11.090-51.755-36.968 0-3.697-14.787-73.935 0-151.567 7.394-40.664 22.181-85.025 51.755-121.993 33.271-36.968 73.935-62.845 129.386-73.935v-99.812h-181.141c-25.877 0-44.361-18.484-44.361-44.361s18.484-44.361 44.361-44.361h465.791c25.877 0 44.361 18.484 44.361 44.361 0 29.574-18.484 48.058-44.361 48.058z" />
<glyph unicode="&#xe95a;" glyph-name="konftel-headset2" d="M936.851 487.943c0 148.879-39.943 268.709-123.461 348.596-130.723 127.092-308.652 119.83-319.546 119.83-141.617-10.894-250.553-61.73-319.546-152.511-98.043-116.199-94.411-268.709-90.78-319.546-21.787-18.156-32.681-47.206-25.418-76.255l54.468-225.135c10.894-39.943 50.837-61.73 90.78-54.468v0c39.943 10.894 61.73 50.837 54.468 90.78l-58.099 225.135c-7.262 29.050-29.050 47.206-58.099 54.468-3.631 50.837 0 174.298 76.255 268.709 61.73 76.255 152.511 119.83 275.972 130.723 0 0 163.404 3.631 272.34-101.674 72.624-68.993 108.936-170.667 108.936-297.759-25.418-7.262-43.574-25.418-50.837-50.837l-58.099-225.135c-7.262-32.681 7.262-68.993 36.312-83.518-18.156-36.312-58.099-108.936-137.986-130.723-7.262 18.156-25.418 32.681-47.206 32.681h-108.936c-29.050 0-50.837-21.787-50.837-50.837s21.787-50.837 50.837-50.837h108.936c25.418 0 43.574 18.156 50.837 39.943 98.043 25.418 145.248 108.936 163.404 152.511 36.312-3.631 68.993 21.787 76.255 54.468l58.099 225.135c10.894 29.050-3.631 61.73-29.050 76.255z" />
<glyph unicode="&#xe986;" glyph-name="search" d="M992.262 88.604l-242.552 206.294c-25.074 22.566-51.89 32.926-73.552 31.926 57.256 67.068 91.842 154.078 91.842 249.176 0 212.078-171.922 384-384 384-212.076 0-384-171.922-384-384s171.922-384 384-384c95.098 0 182.108 34.586 249.176 91.844-1-21.662 9.36-48.478 31.926-73.552l206.294-242.552c35.322-39.246 93.022-42.554 128.22-7.356s31.892 92.898-7.354 128.22zM384 320c-141.384 0-256 114.616-256 256s114.616 256 256 256 256-114.616 256-256-114.614-256-256-256z" />
<glyph unicode="&#xea1c;" glyph-name="play3" d="M192 832l640-384-640-384z" />
<glyph unicode="&#xea26;" glyph-name="volume-high" horiz-adv-x="1088" d="M890.040 37.96c-12.286 0-24.566 4.686-33.942 14.056-18.744 18.746-18.744 49.136 0 67.882 87.638 87.642 135.904 204.16 135.904 328.1 0 123.938-48.266 240.458-135.904 328.098-18.744 18.746-18.744 49.138 0 67.882s49.138 18.744 67.882 0c105.77-105.772 164.022-246.4 164.022-395.98s-58.252-290.208-164.022-395.98c-9.372-9.372-21.656-14.058-33.94-14.058zM719.53 128.47c-12.286 0-24.566 4.686-33.942 14.056-18.744 18.744-18.744 49.136 0 67.882 131.006 131.006 131.006 344.17 0 475.176-18.744 18.746-18.744 49.138 0 67.882 18.744 18.742 49.138 18.744 67.882 0 81.594-81.59 126.53-190.074 126.53-305.466 0-115.39-44.936-223.876-126.53-305.47-9.372-9.374-21.656-14.060-33.94-14.060v0zM549.020 218.98c-12.286 0-24.568 4.686-33.942 14.058-18.746 18.746-18.746 49.134 0 67.88 81.1 81.1 81.1 213.058 0 294.156-18.746 18.746-18.746 49.138 0 67.882s49.136 18.744 67.882 0c118.53-118.53 118.53-311.392 0-429.922-9.372-9.368-21.656-14.054-33.94-14.054zM416.006 0c-8.328 0-16.512 3.25-22.634 9.374l-246.626 246.626h-114.746c-17.672 0-32 14.326-32 32v320c0 17.672 14.328 32 32 32h114.746l246.626 246.628c9.154 9.154 22.916 11.89 34.874 6.936 11.958-4.952 19.754-16.622 19.754-29.564v-832c0-12.944-7.796-24.612-19.754-29.564-3.958-1.64-8.118-2.436-12.24-2.436z" />
<glyph unicode="&#xea2a;" glyph-name="volume-mute2" d="M960 340.852v-84.852h-84.852l-107.148 107.148-107.148-107.148h-84.852v84.852l107.148 107.148-107.148 107.148v84.852h84.852l107.148-107.148 107.148 107.148h84.852v-84.852l-107.148-107.148 107.148-107.148zM416.006 0c-8.328 0-16.512 3.25-22.634 9.374l-246.626 246.626h-114.746c-17.672 0-32 14.326-32 32v320c0 17.672 14.328 32 32 32h114.746l246.626 246.628c9.154 9.154 22.916 11.89 34.874 6.936 11.958-4.952 19.754-16.622 19.754-29.564v-832c0-12.944-7.796-24.612-19.754-29.564-3.958-1.64-8.118-2.436-12.24-2.436z" />
<glyph unicode="&#xea32;" glyph-name="envelop3" d="M960 832h-896c-35.2 0-64-28.8-64-64v-640c0-35.2 28.8-64 64-64h896c35.2 0 64 28.8 64 64v640c0 35.2-28.8 64-64 64zM896 704v-46l-384-226.286-384 226.286v46h768zM128 192v354.572l384-226.286 384 226.286v-354.572h-768z" />
<glyph unicode="&#xea3a;" glyph-name="arrow-up2" d="M877.254 557.254l-320 320c-24.992 24.994-65.514 24.994-90.508 0l-320-320c-24.994-24.994-24.994-65.516 0-90.51 24.994-24.996 65.516-24.996 90.51 0l210.744 210.746v-613.49c0-35.346 28.654-64 64-64s64 28.654 64 64v613.49l210.746-210.746c12.496-12.496 28.876-18.744 45.254-18.744s32.758 6.248 45.254 18.746c24.994 24.994 24.994 65.514 0 90.508z" />
<glyph unicode="&#xea3e;" glyph-name="arrow-down2" d="M877.254 338.746l-320-320c-24.992-24.994-65.514-24.994-90.508 0l-320 320c-24.994 24.994-24.994 65.516 0 90.51 24.994 24.996 65.516 24.996 90.51 0l210.744-210.746v613.49c0 35.346 28.654 64 64 64s64-28.654 64-64v-613.49l210.746 210.746c12.496 12.496 28.876 18.744 45.254 18.744s32.758-6.248 45.254-18.746c24.994-24.994 24.994-65.514 0-90.508z" />
<glyph unicode="&#xea90;" glyph-name="facebook" d="M608 768h160v192h-160c-123.514 0-224-100.486-224-224v-96h-128v-192h128v-512h192v512h160l32 192h-192v96c0 17.346 14.654 32 32 32z" />
<glyph unicode="&#xea92;" glyph-name="instagram" d="M512 867.8c136.8 0 153-0.6 206.8-3 50-2.2 77-10.6 95-17.6 23.8-9.2 41-20.4 58.8-38.2 18-18 29-35 38.4-58.8 7-18 15.4-45.2 17.6-95 2.4-54 3-70.2 3-206.8s-0.6-153-3-206.8c-2.2-50-10.6-77-17.6-95-9.2-23.8-20.4-41-38.2-58.8-18-18-35-29-58.8-38.4-18-7-45.2-15.4-95-17.6-54-2.4-70.2-3-206.8-3s-153 0.6-206.8 3c-50 2.2-77 10.6-95 17.6-23.8 9.2-41 20.4-58.8 38.2-18 18-29 35-38.4 58.8-7 18-15.4 45.2-17.6 95-2.4 54-3 70.2-3 206.8s0.6 153 3 206.8c2.2 50 10.6 77 17.6 95 9.2 23.8 20.4 41 38.2 58.8 18 18 35 29 58.8 38.4 18 7 45.2 15.4 95 17.6 53.8 2.4 70 3 206.8 3zM512 960c-139 0-156.4-0.6-211-3-54.4-2.4-91.8-11.2-124.2-23.8-33.8-13.2-62.4-30.6-90.8-59.2-28.6-28.4-46-57-59.2-90.6-12.6-32.6-21.4-69.8-23.8-124.2-2.4-54.8-3-72.2-3-211.2s0.6-156.4 3-211c2.4-54.4 11.2-91.8 23.8-124.2 13.2-33.8 30.6-62.4 59.2-90.8 28.4-28.4 57-46 90.6-59 32.6-12.6 69.8-21.4 124.2-23.8 54.6-2.4 72-3 211-3s156.4 0.6 211 3c54.4 2.4 91.8 11.2 124.2 23.8 33.6 13 62.2 30.6 90.6 59s46 57 59 90.6c12.6 32.6 21.4 69.8 23.8 124.2 2.4 54.6 3 72 3 211s-0.6 156.4-3 211c-2.4 54.4-11.2 91.8-23.8 124.2-12.6 34-30 62.6-58.6 91-28.4 28.4-57 46-90.6 59-32.6 12.6-69.8 21.4-124.2 23.8-54.8 2.6-72.2 3.2-211.2 3.2v0zM512 711c-145.2 0-263-117.8-263-263s117.8-263 263-263 263 117.8 263 263c0 145.2-117.8 263-263 263zM512 277.4c-94.2 0-170.6 76.4-170.6 170.6s76.4 170.6 170.6 170.6c94.2 0 170.6-76.4 170.6-170.6s-76.4-170.6-170.6-170.6zM846.8 721.4c0-33.91-27.49-61.4-61.4-61.4s-61.4 27.49-61.4 61.4c0 33.91 27.49 61.4 61.4 61.4s61.4-27.49 61.4-61.4z" />
<glyph unicode="&#xea96;" glyph-name="twitter" d="M1024 733.6c-37.6-16.8-78.2-28-120.6-33 43.4 26 76.6 67.2 92.4 116.2-40.6-24-85.6-41.6-133.4-51-38.4 40.8-93 66.2-153.4 66.2-116 0-210-94-210-210 0-16.4 1.8-32.4 5.4-47.8-174.6 8.8-329.4 92.4-433 219.6-18-31-28.4-67.2-28.4-105.6 0-72.8 37-137.2 93.4-174.8-34.4 1-66.8 10.6-95.2 26.2 0-0.8 0-1.8 0-2.6 0-101.8 72.4-186.8 168.6-206-17.6-4.8-36.2-7.4-55.4-7.4-13.6 0-26.6 1.4-39.6 3.8 26.8-83.4 104.4-144.2 196.2-146-72-56.4-162.4-90-261-90-17 0-33.6 1-50.2 3 93.2-59.8 203.6-94.4 322.2-94.4 386.4 0 597.8 320.2 597.8 597.8 0 9.2-0.2 18.2-0.6 27.2 41 29.4 76.6 66.4 104.8 108.6z" />
<glyph unicode="&#xeae3;" glyph-name="bubble-smiley" d="M928 960h-832c-52.8 0-96-43.2-96-96v-576c0-52.8 43.2-96 96-96h160v-256l307.2 256h364.8c52.798 0 96 43.2 96 96v576c0 52.8-43.2 96-96 96zM320 768c35.346 0 64-28.654 64-64s-28.654-64-64-64-64 28.654-64 64 28.654 64 64 64zM512 320c-119.286 0-219.516 81.586-247.934 192h495.868c-28.418-110.414-128.648-192-247.934-192zM704 640c-35.348 0-64 28.654-64 64s28.652 64 64 64 64-28.654 64-64-28.652-64-64-64z" />
<glyph unicode="&#xec83;" glyph-name="download4" d="M896 256v-128h-768v128h-128v-256h1024v256zM768 576h-192v320h-128v-320h-192l256-384z" />
<glyph unicode="&#xed6d;" glyph-name="cross2" d="M893.254 738.746l-90.508 90.508-290.746-290.744-290.746 290.744-90.508-90.506 290.746-290.748-290.746-290.746 90.508-90.508 290.746 290.746 290.746-290.746 90.508 90.51-290.744 290.744z" />
<glyph unicode="&#xed71;" glyph-name="checkmark3" d="M896 800l-544-544-224 224-96-96 320-320 640 640z" />
<glyph unicode="&#xedbc;" glyph-name="arrow-right2" d="M352 960l-128-128 384-384-384-384 128-128 512 511.998-512 512.002z" />
<glyph unicode="&#xedbd;" glyph-name="arrow-right3" d="M352 960l-96-96 416-416-416-416 96-96 512 511.998-512 512.002z" />
<glyph unicode="&#xedbe;" glyph-name="arrow-right4" d="M352 960l-64-64 448-448-448-448 64-64 512 511.998-512 512.002z" />
<glyph unicode="&#xedbf;" glyph-name="arrow-down" d="M1024 608l-192 192-320-320-320 320-192-192 512-511.998z" />
<glyph unicode="&#xedc0;" glyph-name="arrow-down22" d="M1024 608l-128 128-384-384-384 384-128-128 511.998-512 512.002 512z" />
<glyph unicode="&#xedc1;" glyph-name="arrow-down3" d="M1024 608l-96 96-416-416-416 416-96-96 511.998-512 512.002 512z" />
<glyph unicode="&#xedc2;" glyph-name="arrow-down4" d="M1024 608l-64 64-448-448-448 448-64-64 511.998-512 512.002 512z" />
<glyph unicode="&#xedc6;" glyph-name="arrow-left4" d="M672-64l64 64-448 448 448 448-64 64-512-511.998 512-512.002z" />
</font>
</defs>
</svg>
