<?xml version="1.0" standalone="no"?>
<!DOCTYPE svg PUBLIC "-//W3C//DTD SVG 20010904//EN"
 "http://www.w3.org/TR/2001/REC-SVG-20010904/DTD/svg10.dtd">
<svg version="1.0" xmlns="http://www.w3.org/2000/svg"
 width="700.000000pt" height="700.000000pt" viewBox="0 0 700.000000 700.000000"
 preserveAspectRatio="xMidYMid meet">
<metadata>
Created by potrace 1.11, written by Peter Selinger 2001-2013
</metadata>
<g transform="translate(0.000000,700.000000) scale(0.100000,-0.100000)"
fill="#000000" stroke="none">
<path d="M2997 6974 c-1 -1 -31 -4 -67 -8 -77 -7 -102 -11 -197 -32 -40 -8
-75 -15 -78 -15 -3 0 -58 -18 -122 -40 -134 -46 -300 -124 -421 -198 -74 -45
-103 -65 -207 -144 -437 -328 -829 -916 -1045 -1564 -42 -127 -112 -376 -126
-446 -2 -12 -6 -33 -9 -47 -3 -14 -7 -36 -10 -50 -3 -14 -7 -37 -10 -52 -4
-15 -8 -42 -11 -60 -3 -18 -6 -42 -8 -53 -2 -11 -7 -45 -11 -75 -4 -30 -9 -64
-11 -75 -2 -11 -7 -49 -10 -85 -3 -36 -8 -76 -10 -90 -21 -127 -21 -752 0
-880 2 -14 7 -54 11 -90 23 -229 48 -366 116 -640 103 -414 283 -831 502
-1168 181 -276 391 -510 619 -687 117 -92 156 -118 258 -177 292 -168 569
-251 880 -265 74 -3 133 -3 130 0 -3 2 -32 23 -65 46 -271 188 -538 529 -735
936 -91 187 -95 197 -162 375 -65 171 -121 351 -168 538 -31 126 -89 403 -95
457 -2 17 -6 43 -9 59 -3 16 -8 50 -12 75 -4 25 -8 54 -10 65 -2 10 -6 51 -10
90 -3 39 -8 73 -9 76 -2 3 -6 46 -10 95 -4 50 -9 106 -11 125 -21 214 -21 818
1 1030 2 19 6 76 10 125 4 50 8 92 10 95 2 3 6 37 10 75 3 39 12 111 20 160 8
50 17 108 20 130 7 47 8 50 35 185 12 58 24 116 26 129 3 14 14 57 25 97 11
40 22 83 24 95 6 31 33 124 55 194 11 33 31 94 44 135 73 226 199 510 322 729
44 78 190 291 247 361 137 168 292 312 441 409 43 28 72 52 65 52 -25 3 -219
5 -222 3z"/>
<path d="M4777 6294 c-1 -1 -39 -4 -84 -8 -293 -22 -614 -160 -879 -377 -89
-73 -256 -242 -329 -334 -187 -234 -345 -523 -460 -840 -37 -102 -96 -297
-110 -364 -2 -9 -10 -48 -19 -86 -36 -168 -58 -318 -73 -495 -15 -176 -8 -652
12 -759 1 -9 6 -43 10 -76 4 -32 9 -68 11 -79 2 -11 6 -36 9 -56 8 -56 35
-192 49 -247 205 -817 636 -1440 1208 -1746 141 -75 348 -144 488 -162 30 -4
62 -9 72 -10 17 -4 162 -8 187 -6 8 1 -19 24 -59 52 -87 62 -243 216 -324 321
-120 157 -254 394 -341 603 -20 50 -41 99 -46 110 -22 49 -110 331 -137 440
-52 206 -104 482 -118 625 -3 36 -8 79 -10 95 -1 17 -6 62 -9 100 -3 39 -8
102 -11 140 -7 87 -7 560 0 635 3 30 8 94 11 141 3 47 7 95 9 106 3 11 7 56
11 99 4 43 9 81 10 84 2 3 6 30 10 60 23 196 105 535 186 774 113 334 241 589
414 828 81 112 272 302 370 367 44 30 83 57 87 61 6 4 -138 9 -145 4z"/>
<path d="M6210 5659 c-84 -7 -235 -35 -255 -47 -5 -4 -12 -7 -15 -7 -50 -6
-232 -97 -329 -163 -206 -143 -412 -371 -534 -593 -13 -24 -38 -69 -54 -99
-40 -72 -108 -233 -145 -340 -31 -92 -87 -305 -94 -359 -2 -18 -6 -36 -8 -40
-2 -3 -7 -30 -11 -60 -4 -30 -8 -61 -10 -70 -3 -15 -13 -118 -21 -206 -4 -51
-4 -360 0 -400 2 -16 7 -65 10 -108 4 -43 9 -86 11 -96 2 -10 6 -36 9 -57 47
-299 153 -625 271 -834 19 -34 35 -64 35 -66 0 -10 120 -187 176 -258 134
-171 339 -344 510 -430 38 -19 72 -35 77 -35 4 0 20 -7 35 -15 33 -17 201 -64
257 -71 72 -9 195 -16 195 -11 0 3 -24 23 -53 45 -104 76 -215 199 -314 347
-165 244 -308 615 -377 974 -24 125 -28 147 -40 235 -41 291 -49 665 -21 960
10 105 16 161 20 175 2 8 7 40 10 70 11 89 62 326 100 460 88 306 246 630 403
820 91 111 275 270 312 270 8 0 10 3 7 7 -10 9 -59 10 -157 2z"/>
</g>
</svg>
