<?xml version="1.0" encoding="utf-8"?>
<!-- Generator: Adobe Illustrator 20.1.0, SVG Export Plug-In . SVG Version: 6.00 Build 0)  -->
<svg version="1.1" id="Layer_1" xmlns="http://www.w3.org/2000/svg" xmlns:xlink="http://www.w3.org/1999/xlink" x="0px" y="0px"
	 viewBox="0 0 96.4 96.4" style="enable-background:new 0 0 96.4 96.4;" xml:space="preserve">
<style type="text/css">
	.st0{fill:#E28D25;}
	.st1{fill:#69747B;}
</style>
<g>
	<path class="st0" d="M25.4,48.4c0-22.8,8.1-41.9,19.2-48c-0.6,0-1.1-0.1-1.7-0.1C23.9,0.4,8.6,21.8,8.6,48.2S23.9,96,42.8,96
		c0.3,0,0.5,0,0.8,0C33,89.3,25.4,70.6,25.4,48.4z"/>
	<path class="st1" d="M52.4,48.8C52.4,30.3,59,14.6,68,9.7c-0.5,0-0.9,0-1.4,0c-15.4,0-27.9,17.4-27.9,38.9s12.5,38.9,27.9,38.9
		c0.2,0,0.4,0,0.7,0C58.6,82.1,52.4,66.8,52.4,48.8z"/>
	<path class="st0" d="M75.7,48.6c0-14.3,5.1-26.4,12.1-30.2c-0.4,0-0.7,0-1.1,0c-11.9,0-21.6,13.5-21.6,30.1s9.6,30.1,21.6,30.1
		c0.2,0,0.3,0,0.5,0C80.5,74.4,75.7,62.6,75.7,48.6z"/>
</g>
</svg>
