<?xml version="1.0" encoding="utf-8"?>
<!-- Generator: Adobe Illustrator 19.2.1, SVG Export Plug-In . SVG Version: 6.00 Build 0)  -->
<svg version="1.1" id="Layer_1" xmlns="http://www.w3.org/2000/svg" xmlns:xlink="http://www.w3.org/1999/xlink" x="0px" y="0px"
	 width="136px" height="40px" viewBox="0 0 136 40" style="enable-background:new 0 0 136 40;" xml:space="preserve">
<style type="text/css">
	.st0{fill:#2F4053;}
</style>
<g>
	<g>
		<polygon class="st0" points="113.6,20.8 122.8,20.8 124.3,24.5 111.9,24.5 109.9,28.7 104.4,28.7 118,0.8 121.8,0.8 135.4,28.7 
			129.9,28.7 119.9,7.2 113.6,20.8 		"/>
		<polygon class="st0" points="9.8,20.8 19,20.8 20.5,24.5 8.1,24.5 6.1,28.7 0.6,28.7 14.2,0.8 18,0.8 31.6,28.7 26.1,28.7 
			16.1,7.2 9.8,20.8 		"/>
		<polygon class="st0" points="61.5,20.8 70.7,20.8 72.2,24.5 59.8,24.5 57.8,28.7 52.3,28.7 65.9,0.8 69.7,0.8 83.3,28.7 
			77.8,28.7 67.8,7.2 61.5,20.8 		"/>
		<polygon class="st0" points="26.5,0.8 40.1,28.7 40.3,28.7 43.6,28.7 43.9,28.7 57.5,0.8 52,0.8 42,22.8 32,0.8 26.5,0.8 		"/>
		<polygon class="st0" points="90.9,39.2 109.6,0.8 104.2,0.8 93.7,23.2 84.1,0.8 78.7,0.8 91,28.7 85.6,39.2 90.9,39.2 		"/>
	</g>
</g>
</svg>
