<?xml version="1.0" encoding="utf-8"?>
<!-- Generator: Adobe Illustrator 19.2.1, SVG Export Plug-In . SVG Version: 6.00 Build 0)  -->
<svg version="1.1" id="Layer_1" xmlns="http://www.w3.org/2000/svg" xmlns:xlink="http://www.w3.org/1999/xlink" x="0px" y="0px"
	 width="960px" height="96px" viewBox="0 0 960 96" style="enable-background:new 0 0 960 96;" xml:space="preserve">
<style type="text/css">
	.st0{fill:#FFFFFF;}
	.st1{fill:#E38E00;}
	.st2{fill:#70767A;}
	.st3{fill:#FFFFFF;stroke:#FFFFFF;}
</style>
<path class="st0" d="M944,71.3c-0.6,0-1.1,0.5-1.1,1.1v4.8c0,0.6,0.5,1.1,1.1,1.1h14.7c0.6,0,1.1-0.5,1.1-1.1V19.8
	c0-0.6-0.5-1.1-1.1-1.1H944c-0.6,0-1.1,0.5-1.1,1.1v4.8c0,0.7,0.5,1.1,1.1,1.1h7.6v45.6C951.6,71.3,944,71.3,944,71.3z"/>
<path class="st1" d="M16.9,48.3c0-22.8,8.1-41.9,19.2-48c-0.6,0-1.1-0.1-1.7-0.1C15.5,0.2,0.2,21.6,0.2,48s15.3,47.8,34.2,47.8
	c0.3,0,0.5,0,0.8,0C24.6,89.2,16.9,70.4,16.9,48.3z"/>
<path class="st2" d="M43.9,48.6c0-18.5,6.6-34.2,15.6-39.1c-0.5,0-0.9,0-1.4,0c-15.4,0-27.9,17.4-27.9,38.9s12.5,38.9,27.9,38.9
	c0.2,0,0.4,0,0.7,0C50.2,81.9,43.9,66.7,43.9,48.6z"/>
<path class="st1" d="M67.2,48.4c0-14.3,5.1-26.4,12.1-30.2c-0.4,0-0.7,0-1.1,0c-11.9,0-21.6,13.5-21.6,30.1s9.6,30.1,21.6,30.1
	c0.2,0,0.3,0,0.5,0C72.1,74.2,67.2,62.4,67.2,48.4z"/>
<path class="st0" d="M164.4,67.1l-36.9-18.9l36.9-18.9c2.4-1.2,3.4-4.2,2.1-6.6l-0.1-0.2c-1.9-3.6-6.3-5-9.9-3.1l-41.8,21.7V23.5
	c0-2.7-2.2-4.9-4.9-4.9h-3.9c-2.7,0-4.9,2.2-4.9,4.9v49.6c0,2.7,2.2,4.9,4.9,4.9h3.9c2.7,0,4.9-2.2,4.9-4.9V55.4l41.8,21.7
	c3.6,1.9,8,0.5,9.9-3.1l0.1-0.2C167.8,71.3,166.8,68.4,164.4,67.1z"/>
<path class="st0" d="M323.5,23.5v36.2l-43.9-38.8c-1.7-1.5-3.8-2.3-6-2.3H268c-2.7,0-4.9,2.2-4.9,4.9v49.6c0,2.7,2.2,4.9,4.9,4.9
	h4.2c2.7,0,4.9-2.2,4.9-4.9V36.9L321,75.7c1.7,1.5,3.8,2.3,6,2.3h5.6c2.7,0,4.9-2.2,4.9-4.9V23.5c0-2.7-2.2-4.9-4.9-4.9h-4.2
	C325.7,18.6,323.5,20.8,323.5,23.5z"/>
<path class="st0" d="M492.6,18.6h-57.7c-2.7,0-4.9,2.2-4.9,4.9v2.1c0,2.7,2.2,4.9,4.9,4.9h21.9v42.6c0,2.7,2.2,4.9,4.9,4.9h4.2
	c2.7,0,4.9-2.2,4.9-4.9V30.5h21.9c2.7,0,4.9-2.2,4.9-4.9v-2.1C497.5,20.8,495.3,18.6,492.6,18.6z"/>
<path class="st0" d="M414.5,18.6H377c-9,0-25.3,1.7-25.3,16.3V73c0,2.7,2.2,4.9,4.9,4.9h4.1c2.7,0,4.9-2.2,4.9-4.9V54.6h46.9
	c2.7,0,4.9-2.2,4.9-4.9v-2.1c0-2.7-2.2-4.9-4.9-4.9h-46.9V39c0-9,10.1-9.1,15.6-9.1h12h21.4c2.7,0,4.9-2.2,4.9-4.9v-1.5
	C419.4,20.8,417.2,18.6,414.5,18.6z"/>
<path class="st0" d="M617.6,66.6c-5.6,0-15.6-0.1-15.6-9.1v-34c0-2.7-2.2-4.9-4.9-4.9H593c-2.7,0-4.9,2.2-4.9,4.9v38.1
	c0,14.6,16.3,16.3,25.3,16.3h38.3c2.7,0,4.9-2.2,4.9-4.9v-1.5c0-2.7-2.2-4.9-4.9-4.9L617.6,66.6z"/>
<path class="st0" d="M535.5,29.9h33.3c2.7,0,4.9-2.2,4.9-4.9v-1.5c0-2.7-2.2-4.9-4.9-4.9h-37.6c-9,0-25.3,1.7-25.3,16.3v26.7
	c0,14.6,16.3,16.3,25.3,16.3h37.6c2.7,0,4.9-2.2,4.9-4.9v-1.5c0-2.7-2.2-4.9-4.9-4.9h-33.3c-5.6,0-15.6-0.1-15.6-9.1v-2.9h46.9
	c2.7,0,4.9-2.2,4.9-4.9v-2.1c0-2.7-2.2-4.9-4.9-4.9h-46.9V39C519.9,30,530,29.9,535.5,29.9z"/>
<g>
	<path class="st0" d="M191.7,43.6V39c0-9,10.1-9.1,15.6-9.1H221c5.6,0,15.6,0.1,15.6,9.1v4.5h13.9v-8.6c0-14.6-16.3-16.3-25.3-16.3
		H203c-9,0-25.3,1.7-25.3,16.3v8.6L191.7,43.6L191.7,43.6z"/>
	<path class="st0" d="M236.6,53v4.5c0,7.9-10.1,9.1-15.6,9.1h-13.7c-5.6,0-15.6-1.2-15.6-9.1V53h-13.9v8.6C177.7,74.4,194,78,203,78
		h22.2c9,0,25.3-3.6,25.3-16.3V53H236.6z"/>
</g>
<path class="st3" d="M913.5,48.5V36.4h7.5c3.5,0,6.3,2.6,6.3,6c0,3.5-2.9,6.2-6.3,6.2h-7.5V48.5z M911.7,59.2c0,0.2,0.2,0.5,0.5,0.5
	h0.6c0.4,0,0.6-0.2,0.6-0.5V50h6.6c0.5,0,0.9,0,1.3,0l5.2,9.3c0.1,0.2,0.2,0.3,0.5,0.3h1.1c0.4,0,0.4-0.4,0.2-0.6l-5.2-9.2
	c3.4-1,5.9-3.8,5.9-7.4c0-4.3-3.6-7.6-7.9-7.6h-8.8c-0.3,0-0.5,0.2-0.5,0.5L911.7,59.2L911.7,59.2z M890.7,59.2
	c0,0.2,0.2,0.5,0.5,0.5h14.3c0.2,0,0.5-0.2,0.5-0.5v-0.6c0-0.2-0.2-0.5-0.5-0.5h-13V47.6h11.3c0.2,0,0.5-0.2,0.5-0.5v-0.6
	c0-0.2-0.2-0.5-0.5-0.5h-11.3v-9.8h13c0.2,0,0.5-0.2,0.5-0.5v-0.6c0-0.2-0.2-0.5-0.5-0.5h-14.3c-0.2,0-0.5,0.2-0.5,0.5V59.2z
	 M863.2,59.2c0,0.2,0.2,0.5,0.5,0.5h0.7c0.3,0,0.5-0.2,0.5-0.5V47.6h16v11.6c0,0.2,0.2,0.5,0.5,0.5h0.7c0.3,0,0.5-0.2,0.5-0.5v-24
	c0-0.2-0.2-0.5-0.5-0.5h-0.7c-0.2,0-0.5,0.2-0.5,0.5v10.9h-16V35.2c0-0.2-0.2-0.5-0.5-0.5h-0.7c-0.2,0-0.5,0.2-0.5,0.5V59.2z
	 M849.3,59.2c0,0.2,0.2,0.5,0.5,0.5h0.6c0.4,0,0.6-0.2,0.6-0.5v-23h6.8c0.3,0,0.5-0.2,0.5-0.5v-0.6c0-0.2-0.2-0.5-0.5-0.5h-15.3
	c-0.2,0-0.5,0.2-0.5,0.5v0.5c0,0.3,0.1,0.5,0.5,0.5h6.8L849.3,59.2L849.3,59.2z M822.7,59.2c0,0.2,0.2,0.5,0.5,0.5h14.3
	c0.2,0,0.5-0.2,0.5-0.5v-0.6c0-0.2-0.2-0.5-0.5-0.5h-13V47.6h11.3c0.2,0,0.5-0.2,0.5-0.5v-0.6c0-0.2-0.2-0.5-0.5-0.5h-11.3v-9.8h13
	c0.2,0,0.5-0.2,0.5-0.5v-0.6c0-0.2-0.2-0.5-0.5-0.5h-14.3c-0.2,0-0.5,0.2-0.5,0.5V59.2z M793.6,47.2c0,7.2,5.7,12.8,12.9,12.8
	c4.7,0,7.9-1.9,8.6-2.3c0.3-0.2,0.5-0.4,0.5-0.9v-8.3c0-0.2-0.2-0.4-0.5-0.4h-7.3c-0.4,0-0.5,0.1-0.5,0.4v0.7c0,0.3,0.1,0.5,0.5,0.5
	h6.1v6.7c-0.4,0.3-3.1,2-7.4,2c-6.2,0-11.1-5.1-11.1-11.2c0-6.2,4.9-11.2,11.1-11.2c2.9,0,5.5,1.1,7.5,3c0.2,0.2,0.4,0.2,0.6,0
	c0.2-0.2,0.4-0.4,0.6-0.6c0.2-0.2,0.1-0.5,0-0.6c-2.3-2.1-5-3.3-8.6-3.3C799.3,34.4,793.6,40.1,793.6,47.2z M764.6,47.2
	c0-6.2,5-11.3,11.3-11.3c6.2,0,11.3,5.1,11.3,11.3s-5.1,11.2-11.3,11.2C769.6,58.5,764.6,53.5,764.6,47.2z M763,47.2
	c0,7.2,5.7,12.8,12.8,12.8c7.2,0,12.9-5.6,12.9-12.8c0-7.1-5.7-12.9-12.9-12.9C768.7,34.4,763,40.1,763,47.2z M752.6,59.2
	c0,0.2,0.2,0.5,0.5,0.5h0.6c0.4,0,0.6-0.2,0.6-0.5v-23h6.8c0.3,0,0.5-0.2,0.5-0.5v-0.6c0-0.2-0.2-0.5-0.5-0.5h-15.3
	c-0.2,0-0.5,0.2-0.5,0.5v0.5c0,0.3,0.1,0.5,0.5,0.5h6.8L752.6,59.2L752.6,59.2z M726.6,59.2c0,0.2,0.2,0.5,0.5,0.5h0.6
	c0.4,0,0.6-0.2,0.6-0.5v-23h6.8c0.3,0,0.5-0.2,0.5-0.5v-0.6c0-0.2-0.2-0.5-0.5-0.5h-15.3c-0.2,0-0.5,0.2-0.5,0.5v0.5
	c0,0.3,0.1,0.5,0.5,0.5h6.8L726.6,59.2L726.6,59.2z M700,59.2c0,0.2,0.2,0.5,0.5,0.5h14.3c0.2,0,0.5-0.2,0.5-0.5v-0.6
	c0-0.2-0.2-0.5-0.5-0.5h-13V47.6H713c0.2,0,0.5-0.2,0.5-0.5v-0.6c0-0.2-0.2-0.5-0.5-0.5h-11.3v-9.8h13c0.2,0,0.5-0.2,0.5-0.5v-0.6
	c0-0.2-0.2-0.5-0.5-0.5h-14.3c-0.2,0-0.5,0.2-0.5,0.5L700,59.2L700,59.2z M670.9,47.2c0,7.2,5.7,12.8,12.9,12.8
	c4.7,0,7.9-1.9,8.6-2.3c0.3-0.2,0.5-0.4,0.5-0.9v-8.3c0-0.2-0.2-0.4-0.5-0.4h-7.3c-0.4,0-0.5,0.1-0.5,0.4v0.7c0,0.3,0.1,0.5,0.5,0.5
	h6.1v6.7c-0.4,0.3-3.1,2-7.4,2c-6.2,0-11.1-5.1-11.1-11.2c0-6.2,4.9-11.2,11.1-11.2c2.9,0,5.5,1.1,7.5,3c0.2,0.2,0.4,0.2,0.6,0
	c0.2-0.2,0.4-0.4,0.6-0.6c0.2-0.2,0.1-0.5,0-0.6c-2.3-2.1-5-3.3-8.6-3.3C676.6,34.4,670.9,40.1,670.9,47.2z"/>
</svg>
