<?xml version="1.0" encoding="utf-8"?>
<!-- Generator: Adobe Illustrator 19.2.1, SVG Export Plug-In . SVG Version: 6.00 Build 0)  -->
<svg version="1.1" id="Layer_1" xmlns="http://www.w3.org/2000/svg" xmlns:xlink="http://www.w3.org/1999/xlink" x="0px" y="0px"
	 width="650px" height="400px" viewBox="0 0 650 400" style="enable-background:new 0 0 650 400;" xml:space="preserve">
<style type="text/css">
	.st0{fill:#FFFFFF;}
	.st1{fill:#30AAE1;}
</style>
<g id="Layer_2">
	<rect y="-100" class="st0" width="650" height="600"/>
</g>
<g id="Layer_1_1_">
	<g>
		<path class="st1" d="M393,153.9c0.7-3.8,1.1-7.9,1.1-12c0-38.1-31-69.1-69-69.1c-4.1,0-8.1,0.3-12,1.1c-6.1-3.4-13-5.4-20.3-5.4
			c-22.7,0-41,18.4-41,41c0,7.4,1.9,14.3,5.3,20.3c-0.7,3.8-1,7.9-1,12c0,38.1,31,69,69,69c4.1,0,8.1-0.3,12-1
			c6.1,3.4,12.9,5.4,20.3,5.4c22.7,0,41-18.4,41-41C398.4,166.8,396.4,159.8,393,153.9 M357.3,204.7c-5.3,0-10.6-1.4-15.1-4
			l-3.3-1.8l-3.7,0.7c-3.3,0.6-6.7,0.9-10.2,0.9c-32.2,0-58.6-26.3-58.6-58.6c0-3.4,0.2-6.8,0.9-10.2l0.7-3.7l-1.8-3.2
			c-2.6-4.6-4-9.8-4-15.1c0-16.8,13.7-30.6,30.6-30.6c5.3,0,10.6,1.4,15.1,4l3.3,1.8l3.7-0.7c3.3-0.6,6.7-0.9,10.2-0.9
			c32.2,0,58.6,26.3,58.6,58.6c0,3.5-0.2,6.9-0.9,10.2l-0.7,3.7l1.8,3.3c2.6,4.6,4,9.8,4,15.1C388,191,374.2,204.7,357.3,204.7"/>
		<path class="st1" d="M337.5,135.2l-15.5-3.5c-5.9-1.3-12.5-3.3-12.5-8.9s4.6-9.7,13.2-9.7c17.3,0,15.9,12.1,24.5,12.1
			c4.5,0,8.5-2.6,8.5-7.1c0-10.8-17.1-18.7-31.7-18.7c-15.7,0-32.2,6.5-32.2,24.4c0,8.7,3,18,19.8,22.2l21,5.3
			c6.3,1.6,8.2,5.2,8.2,8.5c0,5.4-5.7,11.2-15.2,11.2c-18.8,0-16.2-15-26.3-15c-4.6,0-8.1,3.1-8.1,7.6c0,8.8,10.8,20.7,34.2,20.7
			c22.4,0,33.8-11.2,33.8-25.9C359,149,354.5,139.1,337.5,135.2"/>
		<path class="st1" d="M255.5,270.1v-5.7c0.7,0.6,1.4,1.1,2.3,1.5c1,0.5,1.8,0.9,2.9,1.2c1,0.3,2,0.6,3,0.7c1,0.2,1.9,0.2,2.8,0.2
			c3,0,5.2-0.6,6.6-1.7s2.2-2.7,2.2-4.7c0-1.1-0.2-2.1-0.7-2.9s-1.2-1.5-2-2.2c-0.9-0.7-1.8-1.3-3.1-1.9c-1.2-0.6-2.4-1.2-3.7-1.9
			c-1.4-0.7-2.7-1.4-4-2.2c-1.2-0.7-2.3-1.5-3.2-2.5c-1-0.9-1.6-1.9-2.2-3.1s-0.8-2.5-0.8-4c0-1.8,0.4-3.5,1.2-4.9
			c0.8-1.4,1.8-2.6,3.2-3.4c1.3-0.9,2.9-1.5,4.6-2s3.4-0.7,5.2-0.7c4,0,6.9,0.5,8.8,1.4v5.4c-2.4-1.7-5.6-2.6-9.3-2.6
			c-1.1,0-2.1,0.2-3.2,0.3c-1.1,0.2-2,0.6-2.8,1.1s-1.4,1.2-2,1.9c-0.6,0.8-0.8,1.7-0.8,2.9c0,1.1,0.2,1.9,0.6,2.7
			c0.4,0.7,1,1.4,1.7,2.1c0.7,0.6,1.7,1.2,2.8,1.7c1.1,0.6,2.3,1.2,3.7,1.9c1.4,0.7,2.9,1.4,4.2,2.2c1.3,0.8,2.5,1.7,3.5,2.7
			s1.7,2.1,2.3,3.2c0.6,1.2,0.9,2.6,0.9,4.1c0,2-0.4,3.7-1.2,5.2c-0.8,1.4-1.8,2.6-3.2,3.4c-1.3,0.9-2.9,1.5-4.6,1.8
			c-1.7,0.4-3.7,0.6-5.6,0.6c-0.7,0-1.4-0.1-2.4-0.2c-1-0.2-1.9-0.2-3-0.5c-1-0.2-1.9-0.5-2.8-0.7
			C256.6,270.7,256,270.4,255.5,270.1"/>
		<polygon class="st1" points="308.1,271.7 301.6,271.7 288.6,257.6 288.6,257.6 288.6,271.7 283.8,271.7 283.8,228.3 288.6,228.3 
			288.6,255.8 288.6,255.8 300.9,242.4 307.1,242.4 293.5,256.5 		"/>
		<path class="st1" d="M336.9,242.4l-13.5,34c-2.4,6.2-5.7,9.1-10.1,9.1c-1.2,0-2.2-0.2-3.1-0.4v-4.2c1,0.3,1.9,0.6,2.7,0.6
			c2.3,0,4.2-1.4,5.3-4.2l2.3-5.6L309,242.4h5.2l7.9,22.6c0.1,0.2,0.2,1,0.6,2.2h0.2c0.1-0.5,0.2-1.2,0.6-2.2l8.3-22.6H336.9
			L336.9,242.4z"/>
		<path class="st1" d="M344.1,267.4h-0.2v17.7h-4.7v-42.7h4.7v5.2h0.2c2.3-3.8,5.7-5.8,10.1-5.8c3.7,0,6.7,1.3,8.8,3.9
			s3.2,6.2,3.2,10.6c0,4.9-1.2,8.8-3.6,11.7c-2.4,3-5.7,4.4-9.7,4.4C349.1,272.4,346.2,270.7,344.1,267.4 M343.9,255.6v4.1
			c0,2.4,0.8,4.5,2.3,6.2c1.6,1.7,3.6,2.6,6.1,2.6c2.8,0,5.1-1.1,6.7-3.3c1.6-2.2,2.4-5.2,2.4-9c0-3.3-0.7-5.8-2.2-7.7
			c-1.5-1.8-3.6-2.7-6.2-2.7c-2.7,0-4.9,1-6.5,2.9C344.8,250.4,343.9,252.8,343.9,255.6"/>
		<path class="st1" d="M394.6,258.2h-20.7c0.1,3.3,1,5.7,2.6,7.6c1.7,1.7,4,2.7,6.9,2.7c3.3,0,6.3-1.1,9.1-3.3v4.4
			c-2.6,1.8-6,2.8-10.2,2.8s-7.3-1.3-9.7-4c-2.3-2.7-3.6-6.4-3.6-11.2c0-4.6,1.2-8.3,3.8-11.2c2.6-2.9,5.8-4.2,9.7-4.2
			s6.8,1.2,8.9,3.7s3.2,5.9,3.2,10.3L394.6,258.2L394.6,258.2z M389.8,254.3c0-2.7-0.7-4.8-1.9-6.3c-1.2-1.4-3.1-2.2-5.3-2.2
			c-2.2,0-4.1,0.8-5.7,2.3c-1.5,1.6-2.5,3.7-2.9,6.2H389.8L389.8,254.3z"/>
		<path class="st1" d="M205.3,291.5c-1-0.6-1.9-0.8-3.2-0.8c-3.3,0-4.9,2.1-4.9,6.2v4.6h6.9v4h-6.8v25.3h-4.7v-25.3h-4.9v-4h4.9
			v-4.7c0-3.1,0.9-5.5,2.7-7.3c1.7-1.7,4-2.7,6.6-2.7c1.4,0,2.6,0.2,3.4,0.6V291.5z"/>
		<path class="st1" d="M219.2,331.4c-4.3,0-7.7-1.3-10.4-4.1c-2.6-2.7-3.8-6.3-3.8-10.9c0-4.9,1.3-8.8,4-11.5s6.3-4.2,10.9-4.2
			c4.3,0,7.7,1.3,10.2,4s3.7,6.4,3.7,11.2c0,4.7-1.3,8.5-3.9,11.2C227.2,330.1,223.7,331.4,219.2,331.4 M219.5,304.7
			c-3,0-5.4,1-7.2,3.1c-1.7,2.1-2.6,4.9-2.6,8.5c0,3.5,0.9,6.2,2.7,8.2c1.7,2,4.2,3,7.1,3c3,0,5.3-1,6.9-3c1.6-1.9,2.5-4.7,2.5-8.4
			c0-3.7-0.8-6.5-2.5-8.5C225,305.7,222.7,304.7,219.5,304.7"/>
		<path class="st1" d="M253.1,306.2c-0.8-0.6-2-1-3.6-1c-2,0-3.7,1-5,2.8s-2,4.5-2,7.7v14.9h-4.7v-29.3h4.7v6.1h0.2
			c0.7-2.1,1.7-3.7,3.1-4.8c1.4-1.2,2.9-1.7,4.6-1.7c1.2,0,2.2,0.2,2.8,0.4L253.1,306.2L253.1,306.2z"/>
		<path class="st1" d="M270,330.8v-41h11.7c3.6,0,6.3,0.9,8.5,2.6c2.1,1.7,3.2,4,3.2,6.7c0,2.3-0.6,4.3-1.8,6.2
			c-1.2,1.7-3,3-5.2,3.7v0.2c2.7,0.3,4.9,1.3,6.6,3.2c1.7,1.7,2.5,4.1,2.5,6.9c0,3.5-1.2,6.3-3.7,8.5c-2.6,2.2-5.7,3.3-9.5,3.3
			L270,330.8L270,330.8z M274.8,294.1v13.2h4.9c2.6,0,4.7-0.6,6.2-1.8c1.5-1.2,2.2-3.1,2.2-5.3c0-4-2.6-6-7.9-6L274.8,294.1
			L274.8,294.1z M274.8,311.6v14.8h6.5c2.8,0,5-0.7,6.5-2s2.3-3.2,2.3-5.5c0-4.8-3.3-7.3-9.9-7.3H274.8z"/>
		<path class="st1" d="M324,330.8h-4.7v-4.6h-0.2c-1.9,3.6-4.9,5.3-9,5.3c-6.9,0-10.5-4.2-10.5-12.4v-17.6h4.7v16.6
			c0,6.2,2.3,9.2,7.1,9.2c2.2,0,4.2-0.9,5.7-2.6c1.4-1.7,2.2-3.8,2.2-6.6v-16.8h4.7L324,330.8L324,330.8z"/>
		<path class="st1" d="M328.9,329.8v-5c2.6,1.8,5.3,2.8,8.5,2.8c4.2,0,6.2-1.3,6.2-4.2c0-0.8-0.2-1.4-0.6-2s-0.8-1-1.4-1.4
			s-1.3-0.8-2.2-1.2c-0.8-0.3-1.7-0.7-2.6-1.1c-1.2-0.6-2.4-1-3.4-1.5c-1-0.6-1.7-1.2-2.5-1.7c-0.7-0.7-1.2-1.4-1.4-2.2
			c-0.2-0.9-0.5-1.7-0.5-3s0.3-2.6,1-3.7c0.6-1.1,1.4-1.9,2.6-2.7c1.1-0.7,2.2-1.2,3.7-1.6c1.3-0.3,2.7-0.6,4.2-0.6
			c2.6,0,4.8,0.5,6.8,1.3v4.7c-2.2-1.4-4.6-2.2-7.4-2.2c-0.9,0-1.7,0.2-2.3,0.3c-0.7,0.2-1.3,0.5-1.7,0.9c-0.6,0.3-0.9,0.8-1.2,1.2
			c-0.2,0.6-0.4,1.1-0.4,1.7c0,0.7,0.2,1.4,0.4,1.9c0.2,0.6,0.7,1,1.2,1.4s1.2,0.7,1.9,1.1c0.7,0.3,1.6,0.7,2.6,1.1
			c1.2,0.5,2.5,1,3.5,1.5c1,0.6,1.8,1.2,2.6,1.7c0.7,0.7,1.2,1.4,1.7,2.2c0.4,0.9,0.6,1.8,0.6,3.1c0,1.4-0.3,2.7-1,3.7
			s-1.4,1.9-2.6,2.7c-1.1,0.7-2.2,1.2-3.7,1.6c-1.4,0.3-2.9,0.6-4.3,0.6C333.7,331.4,331.1,330.9,328.9,329.8"/>
		<path class="st1" d="M355.5,294.1c-0.9,0-1.5-0.2-2.2-0.9c-0.6-0.6-0.9-1.2-0.9-2.2s0.2-1.6,0.9-2.2c0.6-0.6,1.2-0.9,2.2-0.9
			s1.6,0.2,2.2,0.9c0.6,0.6,0.9,1.3,0.9,2.2c0,0.8-0.2,1.5-0.9,2.2C357.2,293.7,356.4,294.1,355.5,294.1 M357.8,330.8h-4.7v-29.3
			h4.7V330.8z"/>
		<path class="st1" d="M388.2,330.8h-4.7V314c0-6.2-2.2-9.3-6.8-9.3c-2.3,0-4.2,0.9-5.8,2.7c-1.5,1.7-2.2,4-2.2,6.7v16.7H364v-29.2
			h4.7v4.9h0.2c2.2-3.7,5.4-5.6,9.7-5.6c3.2,0,5.7,1,7.3,3.1s2.6,5.1,2.6,8.9L388.2,330.8L388.2,330.8z"/>
		<path class="st1" d="M417.3,317.3h-20.7c0.1,3.3,1,5.7,2.6,7.6c1.7,1.7,4,2.7,6.9,2.7c3.3,0,6.3-1.1,9.1-3.3v4.4
			c-2.6,1.8-6,2.8-10.2,2.8s-7.3-1.3-9.7-4c-2.3-2.7-3.6-6.4-3.6-11.2c0-4.6,1.2-8.3,3.8-11.2c2.6-2.9,5.8-4.2,9.7-4.2
			s6.8,1.2,8.9,3.7s3.2,5.9,3.2,10.3L417.3,317.3L417.3,317.3z M412.4,313.4c0-2.7-0.7-4.8-1.9-6.3c-1.2-1.4-3.1-2.2-5.3-2.2
			c-2.2,0-4.1,0.8-5.7,2.4s-2.5,3.7-2.9,6.2L412.4,313.4L412.4,313.4z"/>
		<path class="st1" d="M420.5,329.8v-5c2.6,1.8,5.3,2.8,8.5,2.8c4.2,0,6.2-1.3,6.2-4.2c0-0.8-0.2-1.4-0.6-2s-0.8-1-1.4-1.4
			s-1.3-0.8-2.2-1.2c-0.8-0.3-1.7-0.7-2.6-1.1c-1.2-0.6-2.4-1-3.4-1.5s-1.7-1.2-2.5-1.7c-0.7-0.7-1.2-1.4-1.4-2.2
			c-0.3-0.9-0.5-1.7-0.5-3s0.3-2.6,1-3.7c0.6-1.1,1.4-1.9,2.6-2.7c1.1-0.7,2.2-1.2,3.7-1.6c1.3-0.3,2.7-0.6,4.2-0.6
			c2.6,0,4.8,0.5,6.8,1.3v4.7c-2.2-1.4-4.6-2.2-7.4-2.2c-0.9,0-1.7,0.2-2.3,0.3c-0.7,0.2-1.3,0.5-1.7,0.9c-0.6,0.3-0.9,0.8-1.2,1.2
			c-0.2,0.6-0.4,1.1-0.4,1.7c0,0.7,0.2,1.4,0.4,1.9c0.2,0.5,0.7,1,1.2,1.4s1.2,0.7,1.9,1.1c0.7,0.3,1.6,0.7,2.6,1.1
			c1.2,0.5,2.5,1,3.5,1.5c1,0.6,1.8,1.2,2.6,1.7c0.7,0.7,1.2,1.4,1.7,2.2c0.4,0.9,0.6,1.8,0.6,3.1c0,1.4-0.3,2.7-1,3.7
			s-1.4,1.9-2.6,2.7c-1.1,0.7-2.2,1.2-3.7,1.6c-1.4,0.3-2.9,0.6-4.3,0.6C425.3,331.4,422.7,330.9,420.5,329.8"/>
		<path class="st1" d="M443.1,329.8v-5c2.6,1.8,5.3,2.8,8.5,2.8c4.2,0,6.2-1.3,6.2-4.2c0-0.8-0.2-1.4-0.6-2s-0.8-1-1.4-1.4
			s-1.3-0.8-2.2-1.2c-0.8-0.3-1.7-0.7-2.6-1.1c-1.2-0.6-2.4-1-3.4-1.5s-1.7-1.2-2.5-1.7c-0.7-0.7-1.2-1.4-1.4-2.2
			c-0.3-0.9-0.5-1.7-0.5-3s0.3-2.6,1-3.7c0.6-1.1,1.4-1.9,2.6-2.7c1.1-0.7,2.2-1.2,3.7-1.6c1.3-0.3,2.7-0.6,4.2-0.6
			c2.6,0,4.8,0.5,6.8,1.3v4.7c-2.2-1.4-4.6-2.2-7.4-2.2c-0.9,0-1.7,0.2-2.3,0.3c-0.7,0.2-1.3,0.5-1.7,0.9c-0.6,0.3-0.9,0.8-1.2,1.2
			c-0.2,0.6-0.4,1.1-0.4,1.7c0,0.7,0.2,1.4,0.4,1.9c0.2,0.6,0.7,1,1.2,1.4s1.2,0.7,1.9,1.1c0.7,0.3,1.6,0.7,2.6,1.1
			c1.2,0.5,2.5,1,3.5,1.5c1,0.6,1.8,1.2,2.6,1.7c0.7,0.7,1.2,1.4,1.7,2.2c0.4,0.9,0.6,1.8,0.6,3.1c0,1.4-0.3,2.7-1,3.7
			s-1.4,1.9-2.6,2.7c-1.1,0.7-2.2,1.2-3.7,1.6c-1.4,0.3-2.9,0.6-4.3,0.6C447.9,331.4,445.3,330.9,443.1,329.8"/>
	</g>
</g>
</svg>
